<svg width="430" height="932" viewBox="0 0 430 932" fill="none" xmlns="http://www.w3.org/2000/svg">
<g clip-path="url(#clip0_6_393)">
<rect width="430" height="932" fill="#D7ECD9"/>
<path d="M117.48 278L111.48 261.08H115.344L119.64 274.136H118.608L123.288 261.08H126.024L130.32 274.136H129.36L133.92 261.08H137.544L131.496 278H128.448L124.296 265.976H124.848L120.552 278H117.48ZM144.085 278.264C141.973 278.264 140.325 277.696 139.141 276.56C137.957 275.424 137.365 273.88 137.365 271.928C137.365 270.664 137.613 269.56 138.109 268.616C138.621 267.672 139.325 266.936 140.221 266.408C141.133 265.864 142.197 265.592 143.413 265.592C144.613 265.592 145.613 265.848 146.413 266.36C147.229 266.872 147.837 267.592 148.237 268.52C148.653 269.432 148.861 270.496 148.861 271.712V272.552H140.341V270.752H146.221L145.813 271.088C145.813 270.08 145.605 269.32 145.189 268.808C144.789 268.28 144.205 268.016 143.437 268.016C142.589 268.016 141.933 268.328 141.469 268.952C141.021 269.576 140.797 270.472 140.797 271.64V272.024C140.797 273.208 141.085 274.088 141.661 274.664C142.253 275.24 143.101 275.528 144.205 275.528C144.861 275.528 145.477 275.448 146.053 275.288C146.645 275.112 147.205 274.84 147.733 274.472L148.741 276.872C148.133 277.32 147.429 277.664 146.629 277.904C145.845 278.144 144.997 278.264 144.085 278.264ZM151.16 278V260.336H154.784V278H151.16ZM163.602 278.264C162.306 278.264 161.17 278.008 160.194 277.496C159.218 276.984 158.466 276.248 157.938 275.288C157.41 274.328 157.146 273.192 157.146 271.88C157.146 270.552 157.41 269.424 157.938 268.496C158.482 267.552 159.234 266.832 160.194 266.336C161.17 265.84 162.306 265.592 163.602 265.592C164.418 265.592 165.21 265.712 165.978 265.952C166.762 266.192 167.402 266.528 167.898 266.96L166.842 269.456C166.442 269.088 165.978 268.816 165.45 268.64C164.938 268.448 164.442 268.352 163.962 268.352C162.986 268.352 162.226 268.656 161.682 269.264C161.138 269.872 160.866 270.752 160.866 271.904C160.866 273.056 161.138 273.936 161.682 274.544C162.226 275.152 162.986 275.456 163.962 275.456C164.426 275.456 164.914 275.368 165.426 275.192C165.954 275.016 166.426 274.752 166.842 274.4L167.898 276.872C167.386 277.304 166.738 277.648 165.954 277.904C165.186 278.144 164.402 278.264 163.602 278.264ZM175.482 278.264C174.186 278.264 173.058 278.008 172.098 277.496C171.154 276.968 170.418 276.232 169.89 275.288C169.378 274.344 169.122 273.216 169.122 271.904C169.122 270.608 169.378 269.488 169.89 268.544C170.418 267.6 171.154 266.872 172.098 266.36C173.058 265.848 174.186 265.592 175.482 265.592C176.778 265.592 177.906 265.848 178.866 266.36C179.826 266.872 180.562 267.6 181.074 268.544C181.602 269.488 181.866 270.608 181.866 271.904C181.866 273.216 181.602 274.344 181.074 275.288C180.562 276.232 179.826 276.968 178.866 277.496C177.906 278.008 176.778 278.264 175.482 278.264ZM175.482 275.528C176.314 275.528 176.97 275.232 177.45 274.64C177.946 274.048 178.194 273.136 178.194 271.904C178.194 270.672 177.946 269.768 177.45 269.192C176.97 268.616 176.314 268.328 175.482 268.328C174.65 268.328 173.986 268.616 173.49 269.192C173.01 269.768 172.77 270.672 172.77 271.904C172.77 273.136 173.01 274.048 173.49 274.64C173.986 275.232 174.65 275.528 175.482 275.528ZM184.207 278V269C184.207 268.488 184.191 267.968 184.159 267.44C184.127 266.896 184.079 266.36 184.015 265.832H187.495L187.759 268.088H187.471C187.823 267.32 188.343 266.712 189.031 266.264C189.719 265.816 190.535 265.592 191.479 265.592C192.407 265.592 193.183 265.816 193.807 266.264C194.447 266.696 194.903 267.376 195.175 268.304H194.791C195.143 267.472 195.703 266.816 196.471 266.336C197.239 265.84 198.111 265.592 199.087 265.592C200.463 265.592 201.487 266 202.159 266.816C202.831 267.632 203.167 268.912 203.167 270.656V278H199.543V270.776C199.543 269.928 199.407 269.32 199.135 268.952C198.863 268.584 198.423 268.4 197.815 268.4C197.095 268.4 196.527 268.656 196.111 269.168C195.695 269.68 195.487 270.384 195.487 271.28V278H191.863V270.776C191.863 269.928 191.727 269.32 191.455 268.952C191.183 268.584 190.743 268.4 190.135 268.4C189.415 268.4 188.847 268.656 188.431 269.168C188.031 269.68 187.831 270.384 187.831 271.28V278H184.207ZM212.194 278.264C210.082 278.264 208.434 277.696 207.25 276.56C206.066 275.424 205.474 273.88 205.474 271.928C205.474 270.664 205.722 269.56 206.218 268.616C206.73 267.672 207.434 266.936 208.33 266.408C209.242 265.864 210.306 265.592 211.522 265.592C212.722 265.592 213.722 265.848 214.522 266.36C215.338 266.872 215.946 267.592 216.346 268.52C216.762 269.432 216.97 270.496 216.97 271.712V272.552H208.45V270.752H214.33L213.922 271.088C213.922 270.08 213.714 269.32 213.298 268.808C212.898 268.28 212.314 268.016 211.546 268.016C210.698 268.016 210.042 268.328 209.578 268.952C209.13 269.576 208.906 270.472 208.906 271.64V272.024C208.906 273.208 209.194 274.088 209.77 274.664C210.362 275.24 211.21 275.528 212.314 275.528C212.97 275.528 213.586 275.448 214.162 275.288C214.754 275.112 215.314 274.84 215.842 274.472L216.85 276.872C216.242 277.32 215.538 277.664 214.738 277.904C213.954 278.144 213.106 278.264 212.194 278.264ZM233.483 278.264C232.507 278.264 231.635 278.024 230.867 277.544C230.115 277.064 229.611 276.424 229.355 275.624H229.619V278H226.043V260.336H229.667V268.112H229.355C229.627 267.344 230.139 266.736 230.891 266.288C231.659 265.824 232.523 265.592 233.483 265.592C234.555 265.592 235.491 265.848 236.291 266.36C237.091 266.872 237.715 267.6 238.163 268.544C238.627 269.488 238.859 270.624 238.859 271.952C238.859 273.264 238.627 274.392 238.163 275.336C237.715 276.28 237.083 277.008 236.267 277.52C235.467 278.016 234.539 278.264 233.483 278.264ZM232.403 275.528C233.219 275.528 233.891 275.24 234.419 274.664C234.947 274.088 235.211 273.184 235.211 271.952C235.211 270.72 234.947 269.808 234.419 269.216C233.891 268.624 233.219 268.328 232.403 268.328C231.571 268.328 230.891 268.616 230.363 269.192C229.851 269.768 229.595 270.672 229.595 271.904C229.595 273.136 229.851 274.048 230.363 274.64C230.891 275.232 231.571 275.528 232.403 275.528ZM245.935 278.264C244.879 278.264 243.951 278.008 243.151 277.496C242.351 276.984 241.727 276.256 241.279 275.312C240.831 274.368 240.607 273.232 240.607 271.904C240.607 270.592 240.831 269.464 241.279 268.52C241.727 267.576 242.351 266.856 243.151 266.36C243.951 265.848 244.879 265.592 245.935 265.592C246.911 265.592 247.783 265.832 248.551 266.312C249.335 266.776 249.847 267.408 250.087 268.208H249.823L250.111 265.832H253.591C253.543 266.36 253.495 266.896 253.447 267.44C253.415 267.968 253.399 268.488 253.399 269V278H249.799L249.775 275.72H250.063C249.807 276.488 249.295 277.104 248.527 277.568C247.759 278.032 246.895 278.264 245.935 278.264ZM247.039 275.528C247.871 275.528 248.543 275.232 249.055 274.64C249.567 274.048 249.823 273.136 249.823 271.904C249.823 270.672 249.567 269.768 249.055 269.192C248.543 268.616 247.871 268.328 247.039 268.328C246.207 268.328 245.535 268.616 245.023 269.192C244.511 269.768 244.255 270.672 244.255 271.904C244.255 273.136 244.503 274.048 244.999 274.64C245.511 275.232 246.191 275.528 247.039 275.528ZM262.227 278.264C260.931 278.264 259.795 278.008 258.819 277.496C257.843 276.984 257.091 276.248 256.563 275.288C256.035 274.328 255.771 273.192 255.771 271.88C255.771 270.552 256.035 269.424 256.563 268.496C257.107 267.552 257.859 266.832 258.819 266.336C259.795 265.84 260.931 265.592 262.227 265.592C263.043 265.592 263.835 265.712 264.603 265.952C265.387 266.192 266.027 266.528 266.523 266.96L265.467 269.456C265.067 269.088 264.603 268.816 264.075 268.64C263.563 268.448 263.067 268.352 262.587 268.352C261.611 268.352 260.851 268.656 260.307 269.264C259.763 269.872 259.491 270.752 259.491 271.904C259.491 273.056 259.763 273.936 260.307 274.544C260.851 275.152 261.611 275.456 262.587 275.456C263.051 275.456 263.539 275.368 264.051 275.192C264.579 275.016 265.051 274.752 265.467 274.4L266.523 276.872C266.011 277.304 265.363 277.648 264.579 277.904C263.811 278.144 263.027 278.264 262.227 278.264ZM268.582 278V260.336H272.206V270.896H272.254L276.766 265.832H281.086L275.254 272.312V270.992L281.398 278H276.958L272.254 272.72H272.206V278H268.582Z" fill="#252525"/>
<path d="M112.43 301.112C111.889 301.112 111.38 301.033 110.904 300.874C110.437 300.715 110.05 300.496 109.742 300.216L110.078 299.586C110.423 299.866 110.797 300.076 111.198 300.216C111.599 300.347 112.019 300.412 112.458 300.412C113.055 300.412 113.508 300.3 113.816 300.076C114.124 299.852 114.278 299.549 114.278 299.166C114.278 298.867 114.18 298.625 113.984 298.438C113.788 298.251 113.461 298.111 113.004 298.018L111.744 297.752C111.147 297.612 110.699 297.388 110.4 297.08C110.111 296.772 109.966 296.385 109.966 295.918C109.966 295.517 110.069 295.162 110.274 294.854C110.489 294.546 110.792 294.303 111.184 294.126C111.576 293.949 112.038 293.86 112.57 293.86C113.074 293.86 113.536 293.944 113.956 294.112C114.385 294.271 114.735 294.499 115.006 294.798L114.642 295.414C114.362 295.134 114.045 294.924 113.69 294.784C113.345 294.644 112.976 294.574 112.584 294.574C112.005 294.574 111.567 294.695 111.268 294.938C110.969 295.171 110.82 295.484 110.82 295.876C110.82 296.175 110.913 296.422 111.1 296.618C111.287 296.805 111.581 296.945 111.982 297.038L113.242 297.318C113.877 297.458 114.348 297.673 114.656 297.962C114.964 298.251 115.118 298.634 115.118 299.11C115.118 299.521 115.006 299.88 114.782 300.188C114.558 300.487 114.245 300.715 113.844 300.874C113.443 301.033 112.971 301.112 112.43 301.112ZM117.08 301V293.986H117.934V301H117.08ZM116.94 292.264V291.2H118.088V292.264H116.94ZM123.29 304.122C122.702 304.122 122.151 304.043 121.638 303.884C121.134 303.725 120.681 303.487 120.28 303.17L120.588 302.512C120.886 302.727 121.171 302.895 121.442 303.016C121.722 303.147 122.011 303.24 122.31 303.296C122.608 303.361 122.93 303.394 123.276 303.394C123.985 303.394 124.522 303.203 124.886 302.82C125.25 302.447 125.432 301.905 125.432 301.196V298.97H125.586C125.436 299.558 125.124 300.02 124.648 300.356C124.172 300.683 123.612 300.846 122.968 300.846C122.324 300.846 121.764 300.706 121.288 300.426C120.821 300.137 120.457 299.731 120.196 299.208C119.944 298.676 119.818 298.055 119.818 297.346C119.818 296.637 119.944 296.021 120.196 295.498C120.457 294.975 120.821 294.574 121.288 294.294C121.764 294.005 122.324 293.86 122.968 293.86C123.612 293.86 124.172 294.028 124.648 294.364C125.124 294.691 125.436 295.153 125.586 295.75L125.432 295.596L125.558 293.986H126.398C126.36 294.257 126.332 294.523 126.314 294.784C126.295 295.045 126.286 295.302 126.286 295.554V301.07C126.286 302.078 126.029 302.839 125.516 303.352C125.012 303.865 124.27 304.122 123.29 304.122ZM123.066 300.118C123.794 300.118 124.368 299.875 124.788 299.39C125.217 298.905 125.432 298.223 125.432 297.346C125.432 296.478 125.217 295.801 124.788 295.316C124.368 294.831 123.794 294.588 123.066 294.588C122.338 294.588 121.759 294.831 121.33 295.316C120.9 295.801 120.686 296.478 120.686 297.346C120.686 298.223 120.9 298.905 121.33 299.39C121.759 299.875 122.338 300.118 123.066 300.118ZM128.592 301V295.554C128.592 295.302 128.582 295.045 128.564 294.784C128.545 294.523 128.517 294.257 128.48 293.986H129.32L129.446 295.596H129.278C129.483 295.036 129.814 294.607 130.272 294.308C130.729 294.009 131.261 293.86 131.868 293.86C132.698 293.86 133.324 294.079 133.744 294.518C134.173 294.957 134.388 295.643 134.388 296.576V301H133.534V296.646C133.534 295.927 133.389 295.409 133.1 295.092C132.81 294.765 132.362 294.602 131.756 294.602C131.046 294.602 130.482 294.817 130.062 295.246C129.651 295.675 129.446 296.254 129.446 296.982V301H128.592ZM140.254 301V293.986H141.108V301H140.254ZM140.114 292.264V291.2H141.262V292.264H140.114ZM143.439 301V295.554C143.439 295.302 143.43 295.045 143.411 294.784C143.393 294.523 143.365 294.257 143.327 293.986H144.167L144.293 295.596H144.125C144.331 295.036 144.662 294.607 145.119 294.308C145.577 294.009 146.109 293.86 146.715 293.86C147.546 293.86 148.171 294.079 148.591 294.518C149.021 294.957 149.235 295.643 149.235 296.576V301H148.381V296.646C148.381 295.927 148.237 295.409 147.947 295.092C147.658 294.765 147.21 294.602 146.603 294.602C145.894 294.602 145.329 294.817 144.909 295.246C144.499 295.675 144.293 296.254 144.293 296.982V301H143.439ZM157.369 301.112C156.744 301.112 156.263 300.925 155.927 300.552C155.601 300.179 155.437 299.605 155.437 298.83V294.672H154.037V293.986H155.437V292.026L156.291 291.746V293.986H158.363V294.672H156.291V298.704C156.291 299.292 156.385 299.717 156.571 299.978C156.758 300.239 157.057 300.37 157.467 300.37C157.654 300.37 157.817 300.351 157.957 300.314C158.107 300.277 158.233 300.235 158.335 300.188V300.944C158.223 300.991 158.079 301.028 157.901 301.056C157.724 301.093 157.547 301.112 157.369 301.112ZM162.522 301.112C161.859 301.112 161.285 300.967 160.8 300.678C160.324 300.389 159.955 299.973 159.694 299.432C159.433 298.891 159.302 298.242 159.302 297.486C159.302 296.739 159.433 296.095 159.694 295.554C159.955 295.013 160.324 294.597 160.8 294.308C161.285 294.009 161.859 293.86 162.522 293.86C163.175 293.86 163.74 294.009 164.216 294.308C164.701 294.597 165.075 295.013 165.336 295.554C165.607 296.095 165.742 296.739 165.742 297.486C165.742 298.242 165.607 298.891 165.336 299.432C165.075 299.973 164.701 300.389 164.216 300.678C163.74 300.967 163.175 301.112 162.522 301.112ZM162.522 300.384C163.231 300.384 163.801 300.137 164.23 299.642C164.659 299.147 164.874 298.429 164.874 297.486C164.874 296.543 164.659 295.825 164.23 295.33C163.801 294.835 163.231 294.588 162.522 294.588C161.803 294.588 161.229 294.835 160.8 295.33C160.38 295.825 160.17 296.543 160.17 297.486C160.17 298.429 160.38 299.147 160.8 299.642C161.229 300.137 161.803 300.384 162.522 300.384ZM173.84 301.112C173.205 301.112 172.654 300.967 172.188 300.678C171.721 300.389 171.362 299.973 171.11 299.432C170.858 298.891 170.732 298.242 170.732 297.486C170.732 296.73 170.858 296.086 171.11 295.554C171.371 295.013 171.735 294.597 172.202 294.308C172.668 294.009 173.214 293.86 173.84 293.86C174.484 293.86 175.039 294.028 175.506 294.364C175.982 294.7 176.294 295.157 176.444 295.736H176.276L176.416 293.986H177.242C177.214 294.257 177.186 294.523 177.158 294.784C177.139 295.045 177.13 295.302 177.13 295.554V301H176.276V299.25H176.43C176.28 299.829 175.968 300.286 175.492 300.622C175.025 300.949 174.474 301.112 173.84 301.112ZM173.952 300.384C174.67 300.384 175.24 300.137 175.66 299.642C176.08 299.147 176.29 298.429 176.29 297.486C176.29 296.543 176.08 295.825 175.66 295.33C175.24 294.835 174.67 294.588 173.952 294.588C173.233 294.588 172.659 294.835 172.23 295.33C171.81 295.825 171.6 296.543 171.6 297.486C171.6 298.429 171.81 299.147 172.23 299.642C172.659 300.137 173.233 300.384 173.952 300.384ZM182.279 301.112C181.616 301.112 181.038 300.967 180.543 300.678C180.048 300.379 179.666 299.955 179.395 299.404C179.134 298.853 179.003 298.2 179.003 297.444C179.003 296.688 179.138 296.044 179.409 295.512C179.68 294.971 180.058 294.56 180.543 294.28C181.038 294 181.616 293.86 182.279 293.86C182.727 293.86 183.156 293.944 183.567 294.112C183.987 294.28 184.332 294.513 184.603 294.812L184.253 295.442C183.964 295.153 183.651 294.943 183.315 294.812C182.979 294.672 182.643 294.602 182.307 294.602C181.542 294.602 180.944 294.845 180.515 295.33C180.086 295.815 179.871 296.525 179.871 297.458C179.871 298.391 180.086 299.115 180.515 299.628C180.944 300.132 181.542 300.384 182.307 300.384C182.624 300.384 182.951 300.319 183.287 300.188C183.632 300.057 183.954 299.843 184.253 299.544L184.603 300.174C184.323 300.473 183.968 300.706 183.539 300.874C183.119 301.033 182.699 301.112 182.279 301.112ZM189.019 301.112C188.357 301.112 187.778 300.967 187.283 300.678C186.789 300.379 186.406 299.955 186.135 299.404C185.874 298.853 185.743 298.2 185.743 297.444C185.743 296.688 185.879 296.044 186.149 295.512C186.42 294.971 186.798 294.56 187.283 294.28C187.778 294 188.357 293.86 189.019 293.86C189.467 293.86 189.897 293.944 190.307 294.112C190.727 294.28 191.073 294.513 191.343 294.812L190.993 295.442C190.704 295.153 190.391 294.943 190.055 294.812C189.719 294.672 189.383 294.602 189.047 294.602C188.282 294.602 187.685 294.845 187.255 295.33C186.826 295.815 186.611 296.525 186.611 297.458C186.611 298.391 186.826 299.115 187.255 299.628C187.685 300.132 188.282 300.384 189.047 300.384C189.365 300.384 189.691 300.319 190.027 300.188C190.373 300.057 190.695 299.843 190.993 299.544L191.343 300.174C191.063 300.473 190.709 300.706 190.279 300.874C189.859 301.033 189.439 301.112 189.019 301.112ZM195.942 301.112C194.878 301.112 194.033 300.795 193.408 300.16C192.792 299.525 192.484 298.643 192.484 297.514C192.484 296.767 192.619 296.123 192.89 295.582C193.17 295.041 193.557 294.621 194.052 294.322C194.546 294.014 195.12 293.86 195.774 293.86C196.399 293.86 196.926 293.995 197.356 294.266C197.785 294.527 198.116 294.905 198.35 295.4C198.583 295.885 198.7 296.464 198.7 297.136V297.528H193.1V296.912H198.168L197.93 297.094C197.93 296.301 197.748 295.68 197.384 295.232C197.02 294.775 196.478 294.546 195.76 294.546C194.994 294.546 194.397 294.812 193.968 295.344C193.538 295.867 193.324 296.562 193.324 297.43V297.528C193.324 298.461 193.552 299.171 194.01 299.656C194.476 300.141 195.125 300.384 195.956 300.384C196.385 300.384 196.786 300.319 197.16 300.188C197.533 300.057 197.892 299.833 198.238 299.516L198.588 300.146C198.289 300.454 197.902 300.692 197.426 300.86C196.95 301.028 196.455 301.112 195.942 301.112ZM202.801 301.112C202.26 301.112 201.751 301.033 201.275 300.874C200.808 300.715 200.421 300.496 200.113 300.216L200.449 299.586C200.794 299.866 201.168 300.076 201.569 300.216C201.97 300.347 202.39 300.412 202.829 300.412C203.426 300.412 203.879 300.3 204.187 300.076C204.495 299.852 204.649 299.549 204.649 299.166C204.649 298.867 204.551 298.625 204.355 298.438C204.159 298.251 203.832 298.111 203.375 298.018L202.115 297.752C201.518 297.612 201.07 297.388 200.771 297.08C200.482 296.772 200.337 296.385 200.337 295.918C200.337 295.517 200.44 295.162 200.645 294.854C200.86 294.546 201.163 294.303 201.555 294.126C201.947 293.949 202.409 293.86 202.941 293.86C203.445 293.86 203.907 293.944 204.327 294.112C204.756 294.271 205.106 294.499 205.377 294.798L205.013 295.414C204.733 295.134 204.416 294.924 204.061 294.784C203.716 294.644 203.347 294.574 202.955 294.574C202.376 294.574 201.938 294.695 201.639 294.938C201.34 295.171 201.191 295.484 201.191 295.876C201.191 296.175 201.284 296.422 201.471 296.618C201.658 296.805 201.952 296.945 202.353 297.038L203.613 297.318C204.248 297.458 204.719 297.673 205.027 297.962C205.335 298.251 205.489 298.634 205.489 299.11C205.489 299.521 205.377 299.88 205.153 300.188C204.929 300.487 204.616 300.715 204.215 300.874C203.814 301.033 203.342 301.112 202.801 301.112ZM209.719 301.112C209.178 301.112 208.669 301.033 208.193 300.874C207.726 300.715 207.339 300.496 207.031 300.216L207.367 299.586C207.712 299.866 208.086 300.076 208.487 300.216C208.888 300.347 209.308 300.412 209.747 300.412C210.344 300.412 210.797 300.3 211.105 300.076C211.413 299.852 211.567 299.549 211.567 299.166C211.567 298.867 211.469 298.625 211.273 298.438C211.077 298.251 210.75 298.111 210.293 298.018L209.033 297.752C208.436 297.612 207.988 297.388 207.689 297.08C207.4 296.772 207.255 296.385 207.255 295.918C207.255 295.517 207.358 295.162 207.563 294.854C207.778 294.546 208.081 294.303 208.473 294.126C208.865 293.949 209.327 293.86 209.859 293.86C210.363 293.86 210.825 293.944 211.245 294.112C211.674 294.271 212.024 294.499 212.295 294.798L211.931 295.414C211.651 295.134 211.334 294.924 210.979 294.784C210.634 294.644 210.265 294.574 209.873 294.574C209.294 294.574 208.856 294.695 208.557 294.938C208.258 295.171 208.109 295.484 208.109 295.876C208.109 296.175 208.202 296.422 208.389 296.618C208.576 296.805 208.87 296.945 209.271 297.038L210.531 297.318C211.166 297.458 211.637 297.673 211.945 297.962C212.253 298.251 212.407 298.634 212.407 299.11C212.407 299.521 212.295 299.88 212.071 300.188C211.847 300.487 211.534 300.715 211.133 300.874C210.732 301.033 210.26 301.112 209.719 301.112ZM217.615 304.178L217.405 303.436C217.844 303.333 218.208 303.207 218.497 303.058C218.787 302.918 219.029 302.731 219.225 302.498C219.421 302.265 219.594 301.975 219.743 301.63L220.107 300.79L220.093 301.168L217.027 293.986H217.979L220.653 300.468H220.303L222.949 293.986H223.873L220.625 301.672C220.448 302.101 220.252 302.456 220.037 302.736C219.832 303.025 219.608 303.263 219.365 303.45C219.123 303.646 218.857 303.8 218.567 303.912C218.278 304.024 217.961 304.113 217.615 304.178ZM227.983 301.112C227.32 301.112 226.746 300.967 226.261 300.678C225.785 300.389 225.416 299.973 225.155 299.432C224.893 298.891 224.763 298.242 224.763 297.486C224.763 296.739 224.893 296.095 225.155 295.554C225.416 295.013 225.785 294.597 226.261 294.308C226.746 294.009 227.32 293.86 227.983 293.86C228.636 293.86 229.201 294.009 229.677 294.308C230.162 294.597 230.535 295.013 230.797 295.554C231.067 296.095 231.203 296.739 231.203 297.486C231.203 298.242 231.067 298.891 230.797 299.432C230.535 299.973 230.162 300.389 229.677 300.678C229.201 300.967 228.636 301.112 227.983 301.112ZM227.983 300.384C228.692 300.384 229.261 300.137 229.691 299.642C230.12 299.147 230.335 298.429 230.335 297.486C230.335 296.543 230.12 295.825 229.691 295.33C229.261 294.835 228.692 294.588 227.983 294.588C227.264 294.588 226.69 294.835 226.261 295.33C225.841 295.825 225.631 296.543 225.631 297.486C225.631 298.429 225.841 299.147 226.261 299.642C226.69 300.137 227.264 300.384 227.983 300.384ZM235.536 301.112C234.715 301.112 234.089 300.893 233.66 300.454C233.24 300.006 233.03 299.32 233.03 298.396V293.986H233.884V298.34C233.884 299.049 234.029 299.567 234.318 299.894C234.607 300.221 235.051 300.384 235.648 300.384C236.311 300.384 236.843 300.169 237.244 299.74C237.655 299.301 237.86 298.723 237.86 298.004V293.986H238.714V301H237.874V299.348H238.056C237.86 299.917 237.538 300.356 237.09 300.664C236.651 300.963 236.133 301.112 235.536 301.112ZM241.029 301V295.624C241.029 295.353 241.02 295.083 241.001 294.812C240.992 294.532 240.968 294.257 240.931 293.986H241.771L241.883 295.596L241.715 295.61C241.808 295.218 241.976 294.896 242.219 294.644C242.462 294.383 242.742 294.187 243.059 294.056C243.376 293.925 243.703 293.86 244.039 293.86C244.16 293.86 244.272 293.869 244.375 293.888C244.487 293.897 244.59 293.916 244.683 293.944L244.655 294.714C244.543 294.677 244.431 294.653 244.319 294.644C244.207 294.635 244.086 294.63 243.955 294.63C243.535 294.63 243.166 294.733 242.849 294.938C242.541 295.143 242.303 295.405 242.135 295.722C241.967 296.039 241.883 296.361 241.883 296.688V301H241.029ZM252.152 301.112C251.517 301.112 250.967 300.967 250.5 300.678C250.033 300.389 249.674 299.973 249.422 299.432C249.17 298.891 249.044 298.242 249.044 297.486C249.044 296.73 249.17 296.086 249.422 295.554C249.683 295.013 250.047 294.597 250.514 294.308C250.981 294.009 251.527 293.86 252.152 293.86C252.796 293.86 253.351 294.028 253.818 294.364C254.294 294.7 254.607 295.157 254.756 295.736H254.588L254.728 293.986H255.554C255.526 294.257 255.498 294.523 255.47 294.784C255.451 295.045 255.442 295.302 255.442 295.554V301H254.588V299.25H254.742C254.593 299.829 254.28 300.286 253.804 300.622C253.337 300.949 252.787 301.112 252.152 301.112ZM252.264 300.384C252.983 300.384 253.552 300.137 253.972 299.642C254.392 299.147 254.602 298.429 254.602 297.486C254.602 296.543 254.392 295.825 253.972 295.33C253.552 294.835 252.983 294.588 252.264 294.588C251.545 294.588 250.971 294.835 250.542 295.33C250.122 295.825 249.912 296.543 249.912 297.486C249.912 298.429 250.122 299.147 250.542 299.642C250.971 300.137 251.545 300.384 252.264 300.384ZM260.592 301.112C259.929 301.112 259.35 300.967 258.856 300.678C258.361 300.379 257.978 299.955 257.708 299.404C257.446 298.853 257.316 298.2 257.316 297.444C257.316 296.688 257.451 296.044 257.722 295.512C257.992 294.971 258.37 294.56 258.856 294.28C259.35 294 259.929 293.86 260.592 293.86C261.04 293.86 261.469 293.944 261.88 294.112C262.3 294.28 262.645 294.513 262.916 294.812L262.566 295.442C262.276 295.153 261.964 294.943 261.628 294.812C261.292 294.672 260.956 294.602 260.62 294.602C259.854 294.602 259.257 294.845 258.828 295.33C258.398 295.815 258.184 296.525 258.184 297.458C258.184 298.391 258.398 299.115 258.828 299.628C259.257 300.132 259.854 300.384 260.62 300.384C260.937 300.384 261.264 300.319 261.6 300.188C261.945 300.057 262.267 299.843 262.566 299.544L262.916 300.174C262.636 300.473 262.281 300.706 261.852 300.874C261.432 301.033 261.012 301.112 260.592 301.112ZM267.332 301.112C266.669 301.112 266.09 300.967 265.596 300.678C265.101 300.379 264.718 299.955 264.448 299.404C264.186 298.853 264.056 298.2 264.056 297.444C264.056 296.688 264.191 296.044 264.462 295.512C264.732 294.971 265.11 294.56 265.596 294.28C266.09 294 266.669 293.86 267.332 293.86C267.78 293.86 268.209 293.944 268.62 294.112C269.04 294.28 269.385 294.513 269.656 294.812L269.306 295.442C269.016 295.153 268.704 294.943 268.368 294.812C268.032 294.672 267.696 294.602 267.36 294.602C266.594 294.602 265.997 294.845 265.568 295.33C265.138 295.815 264.924 296.525 264.924 297.458C264.924 298.391 265.138 299.115 265.568 299.628C265.997 300.132 266.594 300.384 267.36 300.384C267.677 300.384 268.004 300.319 268.34 300.188C268.685 300.057 269.007 299.843 269.306 299.544L269.656 300.174C269.376 300.473 269.021 300.706 268.592 300.874C268.172 301.033 267.752 301.112 267.332 301.112ZM274.016 301.112C273.353 301.112 272.779 300.967 272.294 300.678C271.818 300.389 271.449 299.973 271.188 299.432C270.927 298.891 270.796 298.242 270.796 297.486C270.796 296.739 270.927 296.095 271.188 295.554C271.449 295.013 271.818 294.597 272.294 294.308C272.779 294.009 273.353 293.86 274.016 293.86C274.669 293.86 275.234 294.009 275.71 294.308C276.195 294.597 276.569 295.013 276.83 295.554C277.101 296.095 277.236 296.739 277.236 297.486C277.236 298.242 277.101 298.891 276.83 299.432C276.569 299.973 276.195 300.389 275.71 300.678C275.234 300.967 274.669 301.112 274.016 301.112ZM274.016 300.384C274.725 300.384 275.295 300.137 275.724 299.642C276.153 299.147 276.368 298.429 276.368 297.486C276.368 296.543 276.153 295.825 275.724 295.33C275.295 294.835 274.725 294.588 274.016 294.588C273.297 294.588 272.723 294.835 272.294 295.33C271.874 295.825 271.664 296.543 271.664 297.486C271.664 298.429 271.874 299.147 272.294 299.642C272.723 300.137 273.297 300.384 274.016 300.384ZM281.569 301.112C280.748 301.112 280.123 300.893 279.693 300.454C279.273 300.006 279.063 299.32 279.063 298.396V293.986H279.917V298.34C279.917 299.049 280.062 299.567 280.351 299.894C280.641 300.221 281.084 300.384 281.681 300.384C282.344 300.384 282.876 300.169 283.277 299.74C283.688 299.301 283.893 298.723 283.893 298.004V293.986H284.747V301H283.907V299.348H284.089C283.893 299.917 283.571 300.356 283.123 300.664C282.685 300.963 282.167 301.112 281.569 301.112ZM287.076 301V295.554C287.076 295.302 287.067 295.045 287.048 294.784C287.029 294.523 287.001 294.257 286.964 293.986H287.804L287.93 295.596H287.762C287.967 295.036 288.299 294.607 288.756 294.308C289.213 294.009 289.745 293.86 290.352 293.86C291.183 293.86 291.808 294.079 292.228 294.518C292.657 294.957 292.872 295.643 292.872 296.576V301H292.018V296.646C292.018 295.927 291.873 295.409 291.584 295.092C291.295 294.765 290.847 294.602 290.24 294.602C289.531 294.602 288.966 294.817 288.546 295.246C288.135 295.675 287.93 296.254 287.93 296.982V301H287.076ZM297.438 301.112C296.812 301.112 296.332 300.925 295.996 300.552C295.669 300.179 295.506 299.605 295.506 298.83V294.672H294.106V293.986H295.506V292.026L296.36 291.746V293.986H298.432V294.672H296.36V298.704C296.36 299.292 296.453 299.717 296.64 299.978C296.826 300.239 297.125 300.37 297.536 300.37C297.722 300.37 297.886 300.351 298.026 300.314C298.175 300.277 298.301 300.235 298.404 300.188V300.944C298.292 300.991 298.147 301.028 297.97 301.056C297.792 301.093 297.615 301.112 297.438 301.112Z" fill="#252525"/>
<rect x="61" y="399" width="300" height="50" rx="10" fill="#C4C4C4" fill-opacity="0.2"/>
<path d="M84.232 430V420.13H90.532V421.082H85.366V424.512H90.224V425.478H85.366V429.034H90.532V430H84.232ZM92.3365 430V424.596C92.3365 424.335 92.3225 424.069 92.2945 423.798C92.2758 423.518 92.2525 423.243 92.2245 422.972H93.3165L93.4565 424.512H93.2885C93.4938 423.971 93.8205 423.56 94.2685 423.28C94.7258 422.991 95.2531 422.846 95.8505 422.846C96.6811 422.846 97.3065 423.07 97.7265 423.518C98.1558 423.957 98.3705 424.652 98.3705 425.604V430H97.2365V425.674C97.2365 425.011 97.1011 424.531 96.8305 424.232C96.5691 423.924 96.1585 423.77 95.5985 423.77C94.9451 423.77 94.4271 423.971 94.0445 424.372C93.6618 424.773 93.4705 425.31 93.4705 425.982V430H92.3365ZM103.032 430.126C102.341 430.126 101.814 429.93 101.45 429.538C101.086 429.137 100.904 428.535 100.904 427.732V423.854H99.5316V422.972H100.904V421.054L102.038 420.732V422.972H104.054V423.854H102.038V427.606C102.038 428.166 102.131 428.567 102.318 428.81C102.514 429.043 102.803 429.16 103.186 429.16C103.363 429.16 103.522 429.146 103.662 429.118C103.802 429.081 103.928 429.039 104.04 428.992V429.944C103.909 430 103.75 430.042 103.564 430.07C103.386 430.107 103.209 430.126 103.032 430.126ZM108.488 430.126C107.386 430.126 106.518 429.809 105.884 429.174C105.249 428.53 104.932 427.639 104.932 426.5C104.932 425.763 105.072 425.123 105.352 424.582C105.632 424.031 106.024 423.607 106.528 423.308C107.032 423 107.61 422.846 108.264 422.846C108.908 422.846 109.449 422.981 109.888 423.252C110.326 423.523 110.662 423.91 110.896 424.414C111.129 424.909 111.246 425.497 111.246 426.178V426.598H105.8V425.884H110.504L110.266 426.066C110.266 425.319 110.098 424.736 109.762 424.316C109.426 423.896 108.926 423.686 108.264 423.686C107.564 423.686 107.018 423.933 106.626 424.428C106.234 424.913 106.038 425.571 106.038 426.402V426.528C106.038 427.405 106.252 428.073 106.682 428.53C107.12 428.978 107.732 429.202 108.516 429.202C108.936 429.202 109.328 429.141 109.692 429.02C110.065 428.889 110.42 428.679 110.756 428.39L111.148 429.188C110.84 429.487 110.448 429.72 109.972 429.888C109.505 430.047 109.01 430.126 108.488 430.126ZM112.953 430V424.666C112.953 424.386 112.944 424.101 112.925 423.812C112.916 423.523 112.897 423.243 112.869 422.972H113.961L114.101 424.68L113.905 424.694C113.998 424.274 114.162 423.929 114.395 423.658C114.628 423.387 114.904 423.187 115.221 423.056C115.538 422.916 115.87 422.846 116.215 422.846C116.355 422.846 116.476 422.851 116.579 422.86C116.691 422.869 116.794 422.893 116.887 422.93L116.873 423.938C116.733 423.891 116.602 423.863 116.481 423.854C116.369 423.835 116.238 423.826 116.089 423.826C115.678 423.826 115.319 423.924 115.011 424.12C114.712 424.316 114.484 424.568 114.325 424.876C114.176 425.184 114.101 425.511 114.101 425.856V430H112.953ZM121.437 433.178L121.171 432.24C121.61 432.137 121.974 432.016 122.263 431.876C122.562 431.745 122.809 431.568 123.005 431.344C123.201 431.12 123.369 430.84 123.509 430.504L123.873 429.678L123.845 430.154L120.779 422.972H122.011L124.545 429.146H124.181L126.687 422.972H127.877L124.629 430.588C124.443 431.036 124.237 431.409 124.013 431.708C123.789 432.016 123.547 432.263 123.285 432.45C123.033 432.646 122.753 432.8 122.445 432.912C122.137 433.024 121.801 433.113 121.437 433.178ZM131.943 430.126C131.271 430.126 130.683 429.981 130.179 429.692C129.684 429.393 129.302 428.973 129.031 428.432C128.76 427.881 128.625 427.233 128.625 426.486C128.625 425.73 128.76 425.081 129.031 424.54C129.302 423.999 129.684 423.583 130.179 423.294C130.683 422.995 131.271 422.846 131.943 422.846C132.624 422.846 133.212 422.995 133.707 423.294C134.211 423.583 134.598 423.999 134.869 424.54C135.149 425.081 135.289 425.73 135.289 426.486C135.289 427.233 135.149 427.881 134.869 428.432C134.598 428.973 134.211 429.393 133.707 429.692C133.212 429.981 132.624 430.126 131.943 430.126ZM131.943 429.202C132.615 429.202 133.147 428.973 133.539 428.516C133.931 428.049 134.127 427.373 134.127 426.486C134.127 425.59 133.926 424.913 133.525 424.456C133.133 423.989 132.606 423.756 131.943 423.756C131.28 423.756 130.753 423.989 130.361 424.456C129.969 424.913 129.773 425.59 129.773 426.486C129.773 427.373 129.969 428.049 130.361 428.516C130.753 428.973 131.28 429.202 131.943 429.202ZM139.535 430.126C138.705 430.126 138.075 429.897 137.645 429.44C137.225 428.983 137.015 428.283 137.015 427.34V422.972H138.149V427.312C138.149 427.956 138.28 428.432 138.541 428.74C138.803 429.039 139.209 429.188 139.759 429.188C140.375 429.188 140.87 428.987 141.243 428.586C141.617 428.185 141.803 427.648 141.803 426.976V422.972H142.937V430H141.831V428.418H142.013C141.817 428.959 141.5 429.379 141.061 429.678C140.632 429.977 140.123 430.126 139.535 430.126ZM145.109 430V424.666C145.109 424.386 145.1 424.101 145.081 423.812C145.072 423.523 145.053 423.243 145.025 422.972H146.117L146.257 424.68L146.061 424.694C146.155 424.274 146.318 423.929 146.551 423.658C146.785 423.387 147.06 423.187 147.377 423.056C147.695 422.916 148.026 422.846 148.371 422.846C148.511 422.846 148.633 422.851 148.735 422.86C148.847 422.869 148.95 422.893 149.043 422.93L149.029 423.938C148.889 423.891 148.759 423.863 148.637 423.854C148.525 423.835 148.395 423.826 148.245 423.826C147.835 423.826 147.475 423.924 147.167 424.12C146.869 424.316 146.64 424.568 146.481 424.876C146.332 425.184 146.257 425.511 146.257 425.856V430H145.109ZM156.996 430.126C155.894 430.126 155.026 429.809 154.392 429.174C153.757 428.53 153.44 427.639 153.44 426.5C153.44 425.763 153.58 425.123 153.86 424.582C154.14 424.031 154.532 423.607 155.036 423.308C155.54 423 156.118 422.846 156.772 422.846C157.416 422.846 157.957 422.981 158.396 423.252C158.834 423.523 159.17 423.91 159.404 424.414C159.637 424.909 159.754 425.497 159.754 426.178V426.598H154.308V425.884H159.012L158.774 426.066C158.774 425.319 158.606 424.736 158.27 424.316C157.934 423.896 157.434 423.686 156.772 423.686C156.072 423.686 155.526 423.933 155.134 424.428C154.742 424.913 154.546 425.571 154.546 426.402V426.528C154.546 427.405 154.76 428.073 155.19 428.53C155.628 428.978 156.24 429.202 157.024 429.202C157.444 429.202 157.836 429.141 158.2 429.02C158.573 428.889 158.928 428.679 159.264 428.39L159.656 429.188C159.348 429.487 158.956 429.72 158.48 429.888C158.013 430.047 157.518 430.126 156.996 430.126ZM161.489 430V424.596C161.489 424.335 161.475 424.069 161.447 423.798C161.428 423.518 161.405 423.243 161.377 422.972H162.469L162.609 424.512H162.441C162.627 423.98 162.921 423.569 163.323 423.28C163.733 422.991 164.228 422.846 164.807 422.846C165.395 422.846 165.871 422.986 166.235 423.266C166.608 423.546 166.86 423.98 166.991 424.568H166.781C166.958 424.036 167.271 423.616 167.719 423.308C168.167 423 168.689 422.846 169.287 422.846C170.061 422.846 170.645 423.07 171.037 423.518C171.429 423.957 171.625 424.652 171.625 425.604V430H170.491V425.674C170.491 425.011 170.374 424.531 170.141 424.232C169.907 423.924 169.534 423.77 169.021 423.77C168.433 423.77 167.966 423.975 167.621 424.386C167.285 424.787 167.117 425.329 167.117 426.01V430H165.983V425.674C165.983 425.011 165.866 424.531 165.633 424.232C165.399 423.924 165.026 423.77 164.513 423.77C163.925 423.77 163.463 423.975 163.127 424.386C162.791 424.787 162.623 425.329 162.623 426.01V430H161.489ZM176.454 430.126C175.828 430.126 175.282 429.981 174.816 429.692C174.349 429.393 173.985 428.973 173.724 428.432C173.472 427.891 173.346 427.242 173.346 426.486C173.346 425.721 173.472 425.067 173.724 424.526C173.985 423.985 174.349 423.569 174.816 423.28C175.282 422.991 175.828 422.846 176.454 422.846C177.088 422.846 177.634 423.009 178.092 423.336C178.558 423.653 178.866 424.087 179.016 424.638H178.848L179.002 422.972H180.094C180.066 423.243 180.038 423.518 180.01 423.798C179.991 424.069 179.982 424.335 179.982 424.596V430H178.848V428.348H179.002C178.852 428.899 178.544 429.333 178.078 429.65C177.611 429.967 177.07 430.126 176.454 430.126ZM176.678 429.202C177.35 429.202 177.882 428.973 178.274 428.516C178.666 428.049 178.862 427.373 178.862 426.486C178.862 425.59 178.666 424.913 178.274 424.456C177.882 423.989 177.35 423.756 176.678 423.756C176.015 423.756 175.483 423.989 175.082 424.456C174.69 424.913 174.494 425.59 174.494 426.486C174.494 427.373 174.69 428.049 175.082 428.516C175.483 428.973 176.015 429.202 176.678 429.202ZM182.174 430V422.972H183.308V430H182.174ZM182.034 421.376V420.102H183.434V421.376H182.034ZM185.51 430V419.696H186.644V430H185.51Z" fill="black" fill-opacity="0.5"/>
<path d="M323 416H339C340.1 416 341 416.9 341 418V430C341 431.1 340.1 432 339 432H323C321.9 432 321 431.1 321 430V418C321 416.9 321.9 416 323 416Z" stroke="black" stroke-opacity="0.3" stroke-width="2" stroke-linecap="round" stroke-linejoin="round"/>
<path d="M341 418L331 425L321 418" stroke="black" stroke-opacity="0.3" stroke-width="2" stroke-linecap="round" stroke-linejoin="round"/>
<rect x="62" y="474" width="300" height="50" rx="10" fill="#C4C4C4" fill-opacity="0.2"/>
<path d="M85.232 505V495.13H89.25C90.286 495.13 91.084 495.382 91.644 495.886C92.204 496.381 92.484 497.071 92.484 497.958C92.484 498.826 92.204 499.517 91.644 500.03C91.084 500.534 90.286 500.786 89.25 500.786H86.394V505H85.232ZM86.394 499.82H89.138C89.8567 499.82 90.398 499.657 90.762 499.33C91.1353 499.003 91.322 498.546 91.322 497.958C91.322 497.361 91.1353 496.899 90.762 496.572C90.398 496.245 89.8567 496.082 89.138 496.082H86.394V499.82ZM96.5573 505.126C95.932 505.126 95.386 504.981 94.9193 504.692C94.4527 504.393 94.0887 503.973 93.8273 503.432C93.5753 502.891 93.4493 502.242 93.4493 501.486C93.4493 500.721 93.5753 500.067 93.8273 499.526C94.0887 498.985 94.4527 498.569 94.9193 498.28C95.386 497.991 95.932 497.846 96.5573 497.846C97.192 497.846 97.738 498.009 98.1953 498.336C98.662 498.653 98.97 499.087 99.1193 499.638H98.9513L99.1053 497.972H100.197C100.169 498.243 100.141 498.518 100.113 498.798C100.095 499.069 100.085 499.335 100.085 499.596V505H98.9513V503.348H99.1053C98.956 503.899 98.648 504.333 98.1813 504.65C97.7147 504.967 97.1733 505.126 96.5573 505.126ZM96.7813 504.202C97.4533 504.202 97.9853 503.973 98.3773 503.516C98.7693 503.049 98.9653 502.373 98.9653 501.486C98.9653 500.59 98.7693 499.913 98.3773 499.456C97.9853 498.989 97.4533 498.756 96.7813 498.756C96.1187 498.756 95.5867 498.989 95.1853 499.456C94.7933 499.913 94.5973 500.59 94.5973 501.486C94.5973 502.373 94.7933 503.049 95.1853 503.516C95.5867 503.973 96.1187 504.202 96.7813 504.202ZM104.616 505.126C104.056 505.126 103.533 505.051 103.048 504.902C102.563 504.743 102.161 504.524 101.844 504.244L102.236 503.446C102.581 503.717 102.955 503.917 103.356 504.048C103.767 504.179 104.191 504.244 104.63 504.244C105.19 504.244 105.61 504.146 105.89 503.95C106.179 503.745 106.324 503.465 106.324 503.11C106.324 502.839 106.231 502.625 106.044 502.466C105.867 502.298 105.573 502.167 105.162 502.074L103.86 501.808C103.263 501.677 102.815 501.458 102.516 501.15C102.217 500.833 102.068 500.431 102.068 499.946C102.068 499.535 102.175 499.176 102.39 498.868C102.605 498.551 102.917 498.303 103.328 498.126C103.739 497.939 104.219 497.846 104.77 497.846C105.283 497.846 105.755 497.925 106.184 498.084C106.623 498.233 106.987 498.453 107.276 498.742L106.87 499.526C106.59 499.255 106.268 499.055 105.904 498.924C105.549 498.784 105.181 498.714 104.798 498.714C104.247 498.714 103.832 498.826 103.552 499.05C103.281 499.265 103.146 499.549 103.146 499.904C103.146 500.175 103.23 500.399 103.398 500.576C103.575 500.744 103.846 500.87 104.21 500.954L105.512 501.22C106.147 501.36 106.618 501.579 106.926 501.878C107.243 502.167 107.402 502.559 107.402 503.054C107.402 503.474 107.285 503.843 107.052 504.16C106.819 504.468 106.492 504.706 106.072 504.874C105.661 505.042 105.176 505.126 104.616 505.126ZM111.561 505.126C111.001 505.126 110.479 505.051 109.993 504.902C109.508 504.743 109.107 504.524 108.789 504.244L109.181 503.446C109.527 503.717 109.9 503.917 110.301 504.048C110.712 504.179 111.137 504.244 111.575 504.244C112.135 504.244 112.555 504.146 112.835 503.95C113.125 503.745 113.269 503.465 113.269 503.11C113.269 502.839 113.176 502.625 112.989 502.466C112.812 502.298 112.518 502.167 112.107 502.074L110.805 501.808C110.208 501.677 109.76 501.458 109.461 501.15C109.163 500.833 109.013 500.431 109.013 499.946C109.013 499.535 109.121 499.176 109.335 498.868C109.55 498.551 109.863 498.303 110.273 498.126C110.684 497.939 111.165 497.846 111.715 497.846C112.229 497.846 112.7 497.925 113.129 498.084C113.568 498.233 113.932 498.453 114.221 498.742L113.815 499.526C113.535 499.255 113.213 499.055 112.849 498.924C112.495 498.784 112.126 498.714 111.743 498.714C111.193 498.714 110.777 498.826 110.497 499.05C110.227 499.265 110.091 499.549 110.091 499.904C110.091 500.175 110.175 500.399 110.343 500.576C110.521 500.744 110.791 500.87 111.155 500.954L112.457 501.22C113.092 501.36 113.563 501.579 113.871 501.878C114.189 502.167 114.347 502.559 114.347 503.054C114.347 503.474 114.231 503.843 113.997 504.16C113.764 504.468 113.437 504.706 113.017 504.874C112.607 505.042 112.121 505.126 111.561 505.126ZM117.908 505L115.304 497.972H116.508L118.678 504.16H118.314L120.554 497.972H121.534L123.732 504.16H123.382L125.566 497.972H126.714L124.096 505H123.004L120.736 498.714H121.296L119.014 505H117.908ZM130.988 505.126C130.316 505.126 129.728 504.981 129.224 504.692C128.729 504.393 128.347 503.973 128.076 503.432C127.805 502.881 127.67 502.233 127.67 501.486C127.67 500.73 127.805 500.081 128.076 499.54C128.347 498.999 128.729 498.583 129.224 498.294C129.728 497.995 130.316 497.846 130.988 497.846C131.669 497.846 132.257 497.995 132.752 498.294C133.256 498.583 133.643 498.999 133.914 499.54C134.194 500.081 134.334 500.73 134.334 501.486C134.334 502.233 134.194 502.881 133.914 503.432C133.643 503.973 133.256 504.393 132.752 504.692C132.257 504.981 131.669 505.126 130.988 505.126ZM130.988 504.202C131.66 504.202 132.192 503.973 132.584 503.516C132.976 503.049 133.172 502.373 133.172 501.486C133.172 500.59 132.971 499.913 132.57 499.456C132.178 498.989 131.651 498.756 130.988 498.756C130.325 498.756 129.798 498.989 129.406 499.456C129.014 499.913 128.818 500.59 128.818 501.486C128.818 502.373 129.014 503.049 129.406 503.516C129.798 503.973 130.325 504.202 130.988 504.202ZM136.074 505V499.666C136.074 499.386 136.065 499.101 136.046 498.812C136.037 498.523 136.018 498.243 135.99 497.972H137.082L137.222 499.68L137.026 499.694C137.119 499.274 137.283 498.929 137.516 498.658C137.749 498.387 138.025 498.187 138.342 498.056C138.659 497.916 138.991 497.846 139.336 497.846C139.476 497.846 139.597 497.851 139.7 497.86C139.812 497.869 139.915 497.893 140.008 497.93L139.994 498.938C139.854 498.891 139.723 498.863 139.602 498.854C139.49 498.835 139.359 498.826 139.21 498.826C138.799 498.826 138.44 498.924 138.132 499.12C137.833 499.316 137.605 499.568 137.446 499.876C137.297 500.184 137.222 500.511 137.222 500.856V505H136.074ZM143.766 505.126C143.15 505.126 142.609 504.981 142.142 504.692C141.675 504.393 141.311 503.973 141.05 503.432C140.798 502.891 140.672 502.242 140.672 501.486C140.672 500.721 140.798 500.067 141.05 499.526C141.311 498.985 141.675 498.569 142.142 498.28C142.609 497.991 143.15 497.846 143.766 497.846C144.401 497.846 144.947 498.005 145.404 498.322C145.871 498.639 146.183 499.069 146.342 499.61H146.174V494.696H147.308V505H146.188V503.32H146.342C146.193 503.88 145.885 504.323 145.418 504.65C144.951 504.967 144.401 505.126 143.766 505.126ZM144.004 504.202C144.667 504.202 145.199 503.973 145.6 503.516C146.001 503.049 146.202 502.373 146.202 501.486C146.202 500.59 146.001 499.913 145.6 499.456C145.199 498.989 144.667 498.756 144.004 498.756C143.341 498.756 142.809 498.989 142.408 499.456C142.016 499.913 141.82 500.59 141.82 501.486C141.82 502.373 142.016 503.049 142.408 503.516C142.809 503.973 143.341 504.202 144.004 504.202Z" fill="black" fill-opacity="0.5"/>
<path d="M339 496H325C323.895 496 323 496.895 323 498V505C323 506.105 323.895 507 325 507H339C340.105 507 341 506.105 341 505V498C341 496.895 340.105 496 339 496Z" stroke="black" stroke-opacity="0.3" stroke-width="2" stroke-linecap="round" stroke-linejoin="round"/>
<path d="M327 496V492C327 490.674 327.527 489.402 328.464 488.464C329.402 487.527 330.674 487 332 487C333.326 487 334.598 487.527 335.536 488.464C336.473 489.402 337 490.674 337 492V496" stroke="black" stroke-opacity="0.3" stroke-width="2" stroke-linecap="round" stroke-linejoin="round"/>
<rect x="61" y="727" width="300" height="50" rx="10" fill="#FF3951"/>
<path d="M187.66 761V746.9H189.26L197.92 758.26H197.42V746.9H199.36V761H197.78L189.14 749.64H189.6V761H187.66ZM207.14 761.18C205.513 761.18 204.233 760.72 203.3 759.8C202.367 758.88 201.9 757.607 201.9 755.98C201.9 754.927 202.1 754.007 202.5 753.22C202.913 752.433 203.48 751.827 204.2 751.4C204.933 750.96 205.78 750.74 206.74 750.74C207.687 750.74 208.48 750.94 209.12 751.34C209.76 751.74 210.247 752.307 210.58 753.04C210.913 753.76 211.08 754.613 211.08 755.6V756.24H203.48V755.08H209.7L209.36 755.34C209.36 754.34 209.133 753.567 208.68 753.02C208.24 752.46 207.6 752.18 206.76 752.18C205.827 752.18 205.107 752.507 204.6 753.16C204.093 753.8 203.84 754.687 203.84 755.82V756.02C203.84 757.207 204.127 758.1 204.7 758.7C205.287 759.3 206.113 759.6 207.18 759.6C207.767 759.6 208.313 759.52 208.82 759.36C209.34 759.187 209.833 758.907 210.3 758.52L210.96 759.9C210.493 760.313 209.927 760.633 209.26 760.86C208.593 761.073 207.887 761.18 207.14 761.18ZM211.88 761L216.46 755.32V756.28L212.12 750.92H214.54L217.6 754.86H216.88L219.94 750.92H222.34L218.04 756.26V755.34L222.6 761H220.18L216.88 756.78H217.6L214.28 761H211.88ZM228.06 761.18C226.967 761.18 226.14 760.887 225.58 760.3C225.02 759.7 224.74 758.807 224.74 757.62V752.48H222.78V750.92H224.74V748.26L226.76 747.72V750.92H229.56V752.48H226.76V757.44C226.76 758.187 226.893 758.72 227.16 759.04C227.427 759.36 227.813 759.52 228.32 759.52C228.573 759.52 228.793 759.5 228.98 759.46C229.18 759.407 229.36 759.347 229.52 759.28V760.92C229.32 761 229.087 761.06 228.82 761.1C228.553 761.153 228.3 761.18 228.06 761.18Z" fill="#FCFCFC"/>
<path d="M246 760L252 754L246 748" stroke="white" stroke-width="2" stroke-linecap="round" stroke-linejoin="round"/>
<rect x="62.5" y="540.5" width="11" height="11" rx="2.5" stroke="#CBCBCB"/>
<path d="M79.792 550V543.655H82.384C83.05 543.655 83.566 543.814 83.932 544.132C84.298 544.444 84.481 544.882 84.481 545.446C84.481 545.818 84.397 546.136 84.229 546.4C84.067 546.658 83.836 546.856 83.536 546.994C83.242 547.132 82.897 547.201 82.501 547.201L82.663 547.084H82.843C83.089 547.084 83.308 547.144 83.5 547.264C83.698 547.384 83.854 547.585 83.968 547.867L84.868 550H84.049L83.185 547.903C83.083 547.633 82.93 547.459 82.726 547.381C82.522 547.297 82.267 547.255 81.961 547.255H80.539V550H79.792ZM80.539 546.67H82.276C82.756 546.67 83.119 546.568 83.365 546.364C83.617 546.154 83.743 545.854 83.743 545.464C83.743 545.074 83.617 544.777 83.365 544.573C83.119 544.369 82.756 544.267 82.276 544.267H80.539V546.67ZM87.8528 550.081C87.1448 550.081 86.5868 549.877 86.1788 549.469C85.7708 549.055 85.5668 548.482 85.5668 547.75C85.5668 547.276 85.6568 546.865 85.8368 546.517C86.0168 546.163 86.2688 545.89 86.5928 545.698C86.9168 545.5 87.2888 545.401 87.7088 545.401C88.1228 545.401 88.4708 545.488 88.7528 545.662C89.0348 545.836 89.2508 546.085 89.4008 546.409C89.5508 546.727 89.6258 547.105 89.6258 547.543V547.813H86.1248V547.354H89.1488L88.9958 547.471C88.9958 546.991 88.8878 546.616 88.6718 546.346C88.4558 546.076 88.1348 545.941 87.7088 545.941C87.2588 545.941 86.9078 546.1 86.6558 546.418C86.4038 546.73 86.2778 547.153 86.2778 547.687V547.768C86.2778 548.332 86.4158 548.761 86.6918 549.055C86.9738 549.343 87.3668 549.487 87.8708 549.487C88.1408 549.487 88.3928 549.448 88.6268 549.37C88.8668 549.286 89.0948 549.151 89.3108 548.965L89.5628 549.478C89.3648 549.67 89.1128 549.82 88.8068 549.928C88.5068 550.03 88.1888 550.081 87.8528 550.081ZM90.7413 550V546.526C90.7413 546.358 90.7323 546.187 90.7143 546.013C90.7023 545.833 90.6873 545.656 90.6693 545.482H91.3713L91.4613 546.472H91.3533C91.4733 546.13 91.6623 545.866 91.9203 545.68C92.1843 545.494 92.5023 545.401 92.8743 545.401C93.2523 545.401 93.5583 545.491 93.7923 545.671C94.0323 545.851 94.1943 546.13 94.2783 546.508H94.1433C94.2573 546.166 94.4583 545.896 94.7463 545.698C95.0343 545.5 95.3703 545.401 95.7543 545.401C96.2523 545.401 96.6273 545.545 96.8793 545.833C97.1313 546.115 97.2573 546.562 97.2573 547.174V550H96.5283V547.219C96.5283 546.793 96.4533 546.484 96.3033 546.292C96.1533 546.094 95.9133 545.995 95.5833 545.995C95.2053 545.995 94.9053 546.127 94.6833 546.391C94.4673 546.649 94.3593 546.997 94.3593 547.435V550H93.6303V547.219C93.6303 546.793 93.5553 546.484 93.4053 546.292C93.2553 546.094 93.0153 545.995 92.6853 545.995C92.3073 545.995 92.0103 546.127 91.7943 546.391C91.5783 546.649 91.4703 546.997 91.4703 547.435V550H90.7413ZM100.65 550.081C99.9416 550.081 99.3836 549.877 98.9756 549.469C98.5676 549.055 98.3636 548.482 98.3636 547.75C98.3636 547.276 98.4536 546.865 98.6336 546.517C98.8136 546.163 99.0656 545.89 99.3896 545.698C99.7136 545.5 100.086 545.401 100.506 545.401C100.92 545.401 101.268 545.488 101.55 545.662C101.832 545.836 102.048 546.085 102.198 546.409C102.348 546.727 102.423 547.105 102.423 547.543V547.813H98.9216V547.354H101.946L101.793 547.471C101.793 546.991 101.685 546.616 101.469 546.346C101.253 546.076 100.932 545.941 100.506 545.941C100.056 545.941 99.7046 546.1 99.4526 546.418C99.2006 546.73 99.0746 547.153 99.0746 547.687V547.768C99.0746 548.332 99.2126 548.761 99.4886 549.055C99.7706 549.343 100.164 549.487 100.668 549.487C100.938 549.487 101.19 549.448 101.424 549.37C101.664 549.286 101.892 549.151 102.108 548.965L102.36 549.478C102.162 549.67 101.91 549.82 101.604 549.928C101.304 550.03 100.986 550.081 100.65 550.081ZM103.538 550V546.526C103.538 546.358 103.529 546.187 103.511 546.013C103.499 545.833 103.484 545.656 103.466 545.482H104.168L104.258 546.472H104.15C104.27 546.13 104.459 545.866 104.717 545.68C104.981 545.494 105.299 545.401 105.671 545.401C106.049 545.401 106.355 545.491 106.589 545.671C106.829 545.851 106.991 546.13 107.075 546.508H106.94C107.054 546.166 107.255 545.896 107.543 545.698C107.831 545.5 108.167 545.401 108.551 545.401C109.049 545.401 109.424 545.545 109.676 545.833C109.928 546.115 110.054 546.562 110.054 547.174V550H109.325V547.219C109.325 546.793 109.25 546.484 109.1 546.292C108.95 546.094 108.71 545.995 108.38 545.995C108.002 545.995 107.702 546.127 107.48 546.391C107.264 546.649 107.156 546.997 107.156 547.435V550H106.427V547.219C106.427 546.793 106.352 546.484 106.202 546.292C106.052 546.094 105.812 545.995 105.482 545.995C105.104 545.995 104.807 546.127 104.591 546.391C104.375 546.649 104.267 546.997 104.267 547.435V550H103.538ZM113.708 550.081C113.3 550.081 112.949 549.979 112.655 549.775C112.361 549.565 112.163 549.28 112.061 548.92H112.16V550H111.44V543.376H112.169V546.535H112.061C112.163 546.187 112.361 545.911 112.655 545.707C112.949 545.503 113.3 545.401 113.708 545.401C114.116 545.401 114.467 545.497 114.761 545.689C115.061 545.875 115.292 546.142 115.454 546.49C115.622 546.838 115.706 547.255 115.706 547.741C115.706 548.227 115.622 548.644 115.454 548.992C115.286 549.34 115.052 549.61 114.752 549.802C114.458 549.988 114.11 550.081 113.708 550.081ZM113.555 549.487C113.981 549.487 114.323 549.34 114.581 549.046C114.839 548.752 114.968 548.317 114.968 547.741C114.968 547.165 114.839 546.73 114.581 546.436C114.323 546.136 113.981 545.986 113.555 545.986C113.129 545.986 112.787 546.136 112.529 546.436C112.277 546.73 112.151 547.165 112.151 547.741C112.151 548.311 112.277 548.746 112.529 549.046C112.787 549.34 113.129 549.487 113.555 549.487ZM118.843 550.081C118.135 550.081 117.577 549.877 117.169 549.469C116.761 549.055 116.557 548.482 116.557 547.75C116.557 547.276 116.647 546.865 116.827 546.517C117.007 546.163 117.259 545.89 117.583 545.698C117.907 545.5 118.279 545.401 118.699 545.401C119.113 545.401 119.461 545.488 119.743 545.662C120.025 545.836 120.241 546.085 120.391 546.409C120.541 546.727 120.616 547.105 120.616 547.543V547.813H117.115V547.354H120.139L119.986 547.471C119.986 546.991 119.878 546.616 119.662 546.346C119.446 546.076 119.125 545.941 118.699 545.941C118.249 545.941 117.898 546.1 117.646 546.418C117.394 546.73 117.268 547.153 117.268 547.687V547.768C117.268 548.332 117.406 548.761 117.682 549.055C117.964 549.343 118.357 549.487 118.861 549.487C119.131 549.487 119.383 549.448 119.617 549.37C119.857 549.286 120.085 549.151 120.301 548.965L120.553 549.478C120.355 549.67 120.103 549.82 119.797 549.928C119.497 550.03 119.179 550.081 118.843 550.081ZM121.714 550V546.571C121.714 546.391 121.708 546.208 121.696 546.022C121.69 545.836 121.678 545.656 121.66 545.482H122.362L122.452 546.58L122.326 546.589C122.386 546.319 122.491 546.097 122.641 545.923C122.791 545.749 122.968 545.62 123.172 545.536C123.376 545.446 123.589 545.401 123.811 545.401C123.901 545.401 123.979 545.404 124.045 545.41C124.117 545.416 124.183 545.431 124.243 545.455L124.234 546.103C124.144 546.073 124.06 546.055 123.982 546.049C123.91 546.037 123.826 546.031 123.73 546.031C123.466 546.031 123.235 546.094 123.037 546.22C122.845 546.346 122.698 546.508 122.596 546.706C122.5 546.904 122.452 547.114 122.452 547.336V550H121.714ZM127.348 550V546.526C127.348 546.358 127.339 546.187 127.321 546.013C127.309 545.833 127.294 545.656 127.276 545.482H127.978L128.068 546.472H127.96C128.08 546.13 128.269 545.866 128.527 545.68C128.791 545.494 129.109 545.401 129.481 545.401C129.859 545.401 130.165 545.491 130.399 545.671C130.639 545.851 130.801 546.13 130.885 546.508H130.75C130.864 546.166 131.065 545.896 131.353 545.698C131.641 545.5 131.977 545.401 132.361 545.401C132.859 545.401 133.234 545.545 133.486 545.833C133.738 546.115 133.864 546.562 133.864 547.174V550H133.135V547.219C133.135 546.793 133.06 546.484 132.91 546.292C132.76 546.094 132.52 545.995 132.19 545.995C131.812 545.995 131.512 546.127 131.29 546.391C131.074 546.649 130.966 546.997 130.966 547.435V550H130.237V547.219C130.237 546.793 130.162 546.484 130.012 546.292C129.862 546.094 129.622 545.995 129.292 545.995C128.914 545.995 128.617 546.127 128.401 546.391C128.185 546.649 128.077 546.997 128.077 547.435V550H127.348ZM137.256 550.081C136.548 550.081 135.99 549.877 135.582 549.469C135.174 549.055 134.97 548.482 134.97 547.75C134.97 547.276 135.06 546.865 135.24 546.517C135.42 546.163 135.672 545.89 135.996 545.698C136.32 545.5 136.692 545.401 137.112 545.401C137.526 545.401 137.874 545.488 138.156 545.662C138.438 545.836 138.654 546.085 138.804 546.409C138.954 546.727 139.029 547.105 139.029 547.543V547.813H135.528V547.354H138.552L138.399 547.471C138.399 546.991 138.291 546.616 138.075 546.346C137.859 546.076 137.538 545.941 137.112 545.941C136.662 545.941 136.311 546.1 136.059 546.418C135.807 546.73 135.681 547.153 135.681 547.687V547.768C135.681 548.332 135.819 548.761 136.095 549.055C136.377 549.343 136.77 549.487 137.274 549.487C137.544 549.487 137.796 549.448 138.03 549.37C138.27 549.286 138.498 549.151 138.714 548.965L138.966 549.478C138.768 549.67 138.516 549.82 138.21 549.928C137.91 550.03 137.592 550.081 137.256 550.081Z" fill="#252525"/>
<path d="M105.118 813V803.835H106.054L111.8 811.427H111.488V803.835H112.619V813H111.696L105.95 805.408H106.249V813H105.118ZM117.69 813.117C116.65 813.117 115.826 812.818 115.22 812.22C114.622 811.622 114.323 810.799 114.323 809.75C114.323 809.057 114.453 808.459 114.713 807.956C114.981 807.445 115.35 807.05 115.818 806.773C116.286 806.487 116.832 806.344 117.456 806.344C118.054 806.344 118.561 806.474 118.977 806.734C119.393 806.985 119.709 807.345 119.926 807.813C120.142 808.281 120.251 808.836 120.251 809.477V809.867H115.246V809.165H119.445L119.224 809.334C119.224 808.658 119.072 808.134 118.769 807.761C118.474 807.388 118.036 807.202 117.456 807.202C116.823 807.202 116.333 807.423 115.987 807.865C115.64 808.298 115.467 808.892 115.467 809.646V809.763C115.467 810.56 115.662 811.163 116.052 811.57C116.45 811.977 117.001 812.181 117.703 812.181C118.093 812.181 118.457 812.125 118.795 812.012C119.133 811.899 119.458 811.713 119.77 811.453L120.16 812.272C119.865 812.541 119.497 812.749 119.055 812.896C118.621 813.043 118.166 813.117 117.69 813.117ZM123.476 813L121.032 806.461H122.267L124.243 812.064H123.905L125.933 806.461H126.895L128.91 812.064H128.585L130.574 806.461H131.757L129.3 813H128.182L126.102 807.306H126.674L124.607 813H123.476ZM136.602 813V803.835H137.668L141.282 811.973H140.892L144.506 803.835H145.559V813H144.454V805.447H144.857L141.464 813H140.697L137.304 805.447H137.707V813H136.602ZM150.647 813.117C149.607 813.117 148.783 812.818 148.177 812.22C147.579 811.622 147.28 810.799 147.28 809.75C147.28 809.057 147.41 808.459 147.67 807.956C147.938 807.445 148.307 807.05 148.775 806.773C149.243 806.487 149.789 806.344 150.413 806.344C151.011 806.344 151.518 806.474 151.934 806.734C152.35 806.985 152.666 807.345 152.883 807.813C153.099 808.281 153.208 808.836 153.208 809.477V809.867H148.203V809.165H152.402L152.181 809.334C152.181 808.658 152.029 808.134 151.726 807.761C151.431 807.388 150.993 807.202 150.413 807.202C149.78 807.202 149.29 807.423 148.944 807.865C148.597 808.298 148.424 808.892 148.424 809.646V809.763C148.424 810.56 148.619 811.163 149.009 811.57C149.407 811.977 149.958 812.181 150.66 812.181C151.05 812.181 151.414 812.125 151.752 812.012C152.09 811.899 152.415 811.713 152.727 811.453L153.117 812.272C152.822 812.541 152.454 812.749 152.012 812.896C151.578 813.043 151.123 813.117 150.647 813.117ZM154.754 813V808.008C154.754 807.757 154.745 807.501 154.728 807.241C154.71 806.981 154.684 806.721 154.65 806.461H155.794L155.924 807.865H155.768C155.941 807.38 156.218 807.007 156.6 806.747C156.981 806.478 157.436 806.344 157.965 806.344C158.502 806.344 158.944 806.474 159.291 806.734C159.637 806.985 159.871 807.384 159.993 807.93H159.798C159.962 807.445 160.253 807.059 160.669 806.773C161.085 806.487 161.57 806.344 162.125 806.344C162.844 806.344 163.386 806.556 163.75 806.981C164.114 807.397 164.296 808.047 164.296 808.931V813H163.113V808.996C163.113 808.398 163.009 807.969 162.801 807.709C162.593 807.44 162.263 807.306 161.813 807.306C161.284 807.306 160.868 807.488 160.565 807.852C160.261 808.207 160.11 808.693 160.11 809.308V813H158.927V808.996C158.927 808.398 158.823 807.969 158.615 807.709C158.415 807.44 158.086 807.306 157.627 807.306C157.098 807.306 156.682 807.488 156.379 807.852C156.084 808.207 155.937 808.693 155.937 809.308V813H154.754ZM169.623 813.117C169.043 813.117 168.54 812.974 168.115 812.688C167.691 812.393 167.409 811.99 167.27 811.479H167.413V813H166.23V803.432H167.413V807.956H167.27C167.418 807.453 167.699 807.059 168.115 806.773C168.54 806.487 169.043 806.344 169.623 806.344C170.204 806.344 170.711 806.483 171.144 806.76C171.578 807.029 171.911 807.414 172.145 807.917C172.388 808.42 172.509 809.026 172.509 809.737C172.509 810.439 172.388 811.046 172.145 811.557C171.911 812.06 171.573 812.445 171.131 812.714C170.698 812.983 170.195 813.117 169.623 813.117ZM169.35 812.181C169.94 812.181 170.412 811.977 170.767 811.57C171.131 811.154 171.313 810.543 171.313 809.737C171.313 808.931 171.131 808.324 170.767 807.917C170.412 807.501 169.94 807.293 169.35 807.293C168.752 807.293 168.276 807.497 167.92 807.904C167.574 808.311 167.4 808.918 167.4 809.724C167.4 810.53 167.574 811.141 167.92 811.557C168.276 811.973 168.752 812.181 169.35 812.181ZM177.078 813.117C176.038 813.117 175.215 812.818 174.608 812.22C174.01 811.622 173.711 810.799 173.711 809.75C173.711 809.057 173.841 808.459 174.101 807.956C174.37 807.445 174.738 807.05 175.206 806.773C175.674 806.487 176.22 806.344 176.844 806.344C177.442 806.344 177.949 806.474 178.365 806.734C178.781 806.985 179.098 807.345 179.314 807.813C179.531 808.281 179.639 808.836 179.639 809.477V809.867H174.634V809.165H178.833L178.612 809.334C178.612 808.658 178.461 808.134 178.157 807.761C177.863 807.388 177.425 807.202 176.844 807.202C176.212 807.202 175.722 807.423 175.375 807.865C175.029 808.298 174.855 808.892 174.855 809.646V809.763C174.855 810.56 175.05 811.163 175.44 811.57C175.839 811.977 176.389 812.181 177.091 812.181C177.481 812.181 177.845 812.125 178.183 812.012C178.521 811.899 178.846 811.713 179.158 811.453L179.548 812.272C179.254 812.541 178.885 812.749 178.443 812.896C178.01 813.043 177.555 813.117 177.078 813.117ZM181.172 813V808.06C181.172 807.8 181.164 807.536 181.146 807.267C181.138 806.99 181.116 806.721 181.081 806.461H182.225L182.368 808.099L182.173 808.112C182.26 807.713 182.407 807.384 182.615 807.124C182.832 806.855 183.088 806.66 183.382 806.539C183.686 806.409 183.998 806.344 184.318 806.344C184.457 806.344 184.574 806.348 184.669 806.357C184.765 806.366 184.86 806.387 184.955 806.422L184.929 807.475C184.799 807.423 184.678 807.393 184.565 807.384C184.461 807.367 184.331 807.358 184.175 807.358C183.794 807.358 183.465 807.445 183.187 807.618C182.919 807.791 182.711 808.021 182.563 808.307C182.425 808.593 182.355 808.901 182.355 809.23V813H181.172ZM187.245 810.53V810.114C187.245 809.689 187.327 809.291 187.492 808.918C187.656 808.537 187.951 808.112 188.376 807.644C188.705 807.289 188.935 806.977 189.065 806.708C189.195 806.431 189.26 806.153 189.26 805.876C189.26 805.521 189.13 805.243 188.87 805.044C188.61 804.845 188.254 804.745 187.804 804.745C187.466 804.745 187.136 804.793 186.816 804.888C186.504 804.975 186.205 805.1 185.919 805.265V804.186C186.205 804.039 186.525 803.926 186.881 803.848C187.236 803.761 187.587 803.718 187.934 803.718C188.436 803.718 188.878 803.796 189.26 803.952C189.641 804.108 189.936 804.338 190.144 804.641C190.36 804.936 190.469 805.308 190.469 805.759C190.469 806.036 190.421 806.305 190.326 806.565C190.239 806.825 190.105 807.081 189.923 807.332C189.749 807.583 189.52 807.852 189.234 808.138C188.809 808.563 188.51 808.931 188.337 809.243C188.172 809.555 188.068 809.876 188.025 810.205L187.986 810.53H187.245ZM186.894 813V811.557H188.337V813H186.894Z" fill="#252525"/>
<path d="M195.455 813V803.835H199.459C200.465 803.835 201.24 804.073 201.786 804.55C202.341 805.027 202.618 805.69 202.618 806.539C202.618 807.102 202.493 807.583 202.241 807.982C201.999 808.381 201.648 808.688 201.188 808.905C200.729 809.113 200.187 809.217 199.563 809.217L199.745 808.97H200.187C200.551 808.97 200.876 809.065 201.162 809.256C201.448 809.447 201.682 809.737 201.864 810.127L203.203 813H201.357L200.005 810.023C199.884 809.72 199.698 809.52 199.446 809.425C199.204 809.33 198.909 809.282 198.562 809.282H197.132V813H195.455ZM197.132 808.047H199.186C199.776 808.047 200.222 807.926 200.525 807.683C200.837 807.432 200.993 807.068 200.993 806.591C200.993 806.114 200.837 805.755 200.525 805.512C200.222 805.269 199.776 805.148 199.186 805.148H197.132V808.047ZM207.46 813.13C206.36 813.13 205.497 812.827 204.873 812.22C204.249 811.613 203.937 810.781 203.937 809.724C203.937 809.039 204.072 808.441 204.34 807.93C204.609 807.419 204.982 807.02 205.458 806.734C205.944 806.448 206.507 806.305 207.148 806.305C207.781 806.305 208.31 806.439 208.734 806.708C209.159 806.977 209.48 807.354 209.696 807.839C209.922 808.324 210.034 808.892 210.034 809.542V809.971H205.25V809.113H208.877L208.656 809.295C208.656 808.688 208.526 808.225 208.266 807.904C208.015 807.583 207.647 807.423 207.161 807.423C206.624 807.423 206.208 807.614 205.913 807.995C205.627 808.376 205.484 808.909 205.484 809.594V809.763C205.484 810.474 205.658 811.007 206.004 811.362C206.36 811.709 206.858 811.882 207.499 811.882C207.872 811.882 208.219 811.834 208.539 811.739C208.869 811.635 209.181 811.47 209.475 811.245L209.956 812.337C209.644 812.588 209.272 812.783 208.838 812.922C208.405 813.061 207.946 813.13 207.46 813.13ZM214.452 815.912C213.846 815.912 213.295 815.847 212.801 815.717C212.316 815.587 211.883 815.388 211.501 815.119L211.852 813.949C212.104 814.114 212.364 814.248 212.632 814.352C212.901 814.456 213.178 814.534 213.464 814.586C213.75 814.638 214.041 814.664 214.335 814.664C214.942 814.664 215.393 814.512 215.687 814.209C215.991 813.914 216.142 813.49 216.142 812.935V811.362H216.272C216.134 811.813 215.852 812.172 215.427 812.441C215.011 812.71 214.53 812.844 213.984 812.844C213.395 812.844 212.879 812.714 212.437 812.454C212.004 812.185 211.666 811.804 211.423 811.31C211.181 810.816 211.059 810.235 211.059 809.568C211.059 808.901 211.181 808.324 211.423 807.839C211.666 807.345 212.004 806.968 212.437 806.708C212.879 806.439 213.395 806.305 213.984 806.305C214.539 806.305 215.02 806.439 215.427 806.708C215.843 806.968 216.121 807.323 216.259 807.774L216.142 807.696L216.272 806.435H217.845C217.811 806.704 217.785 806.977 217.767 807.254C217.75 807.531 217.741 807.804 217.741 808.073V812.74C217.741 813.771 217.46 814.556 216.896 815.093C216.342 815.639 215.527 815.912 214.452 815.912ZM214.426 811.596C214.946 811.596 215.358 811.423 215.661 811.076C215.973 810.721 216.129 810.218 216.129 809.568C216.129 808.918 215.973 808.42 215.661 808.073C215.358 807.726 214.946 807.553 214.426 807.553C213.898 807.553 213.477 807.726 213.165 808.073C212.853 808.42 212.697 808.918 212.697 809.568C212.697 810.218 212.853 810.721 213.165 811.076C213.477 811.423 213.898 811.596 214.426 811.596ZM219.497 813V806.435H221.122V813H219.497ZM219.406 805.2V803.614H221.213V805.2H219.406ZM225.227 813.13C224.664 813.13 224.144 813.065 223.667 812.935C223.199 812.796 222.805 812.606 222.484 812.363L222.939 811.271C223.268 811.496 223.632 811.67 224.031 811.791C224.43 811.912 224.833 811.973 225.24 811.973C225.673 811.973 225.994 811.899 226.202 811.752C226.419 811.605 226.527 811.405 226.527 811.154C226.527 810.955 226.458 810.799 226.319 810.686C226.189 810.565 225.977 810.474 225.682 810.413L224.382 810.166C223.827 810.045 223.403 809.837 223.108 809.542C222.822 809.247 222.679 808.862 222.679 808.385C222.679 807.978 222.787 807.618 223.004 807.306C223.229 806.994 223.546 806.751 223.953 806.578C224.369 806.396 224.854 806.305 225.409 806.305C225.894 806.305 226.349 806.37 226.774 806.5C227.207 806.63 227.571 806.825 227.866 807.085L227.398 808.138C227.129 807.921 226.822 807.752 226.475 807.631C226.128 807.51 225.79 807.449 225.461 807.449C225.01 807.449 224.681 807.531 224.473 807.696C224.265 807.852 224.161 808.056 224.161 808.307C224.161 808.498 224.222 808.658 224.343 808.788C224.473 808.909 224.672 809 224.941 809.061L226.241 809.308C226.822 809.421 227.259 809.62 227.554 809.906C227.857 810.183 228.009 810.565 228.009 811.05C228.009 811.483 227.892 811.856 227.658 812.168C227.424 812.48 227.099 812.718 226.683 812.883C226.267 813.048 225.782 813.13 225.227 813.13ZM232.144 813.13C231.364 813.13 230.775 812.926 230.376 812.519C229.977 812.112 229.778 811.501 229.778 810.686V807.657H228.517V806.435H229.778V804.758L231.403 804.342V806.435H233.158V807.657H231.403V810.582C231.403 811.033 231.49 811.349 231.663 811.531C231.836 811.713 232.075 811.804 232.378 811.804C232.543 811.804 232.681 811.791 232.794 811.765C232.915 811.739 233.032 811.704 233.145 811.661V812.948C232.998 813.009 232.833 813.052 232.651 813.078C232.478 813.113 232.309 813.13 232.144 813.13ZM237.37 813.13C236.27 813.13 235.407 812.827 234.783 812.22C234.159 811.613 233.847 810.781 233.847 809.724C233.847 809.039 233.982 808.441 234.25 807.93C234.519 807.419 234.892 807.02 235.368 806.734C235.854 806.448 236.417 806.305 237.058 806.305C237.691 806.305 238.22 806.439 238.644 806.708C239.069 806.977 239.39 807.354 239.606 807.839C239.832 808.324 239.944 808.892 239.944 809.542V809.971H235.16V809.113H238.787L238.566 809.295C238.566 808.688 238.436 808.225 238.176 807.904C237.925 807.583 237.557 807.423 237.071 807.423C236.534 807.423 236.118 807.614 235.823 807.995C235.537 808.376 235.394 808.909 235.394 809.594V809.763C235.394 810.474 235.568 811.007 235.914 811.362C236.27 811.709 236.768 811.882 237.409 811.882C237.782 811.882 238.129 811.834 238.449 811.739C238.779 811.635 239.091 811.47 239.385 811.245L239.866 812.337C239.554 812.588 239.182 812.783 238.748 812.922C238.315 813.061 237.856 813.13 237.37 813.13ZM241.308 813V808.112C241.308 807.835 241.299 807.553 241.282 807.267C241.273 806.981 241.251 806.704 241.217 806.435H242.79L242.972 808.229H242.712C242.798 807.796 242.941 807.436 243.141 807.15C243.349 806.864 243.6 806.652 243.895 806.513C244.189 806.374 244.51 806.305 244.857 806.305C245.013 806.305 245.138 806.314 245.234 806.331C245.329 806.34 245.424 806.361 245.52 806.396L245.507 807.826C245.342 807.757 245.199 807.713 245.078 807.696C244.965 807.679 244.822 807.67 244.649 807.67C244.276 807.67 243.96 807.748 243.7 807.904C243.448 808.06 243.258 808.277 243.128 808.554C243.006 808.831 242.946 809.148 242.946 809.503V813H241.308ZM249.991 813V808.073C249.991 807.804 249.983 807.531 249.965 807.254C249.948 806.977 249.922 806.704 249.887 806.435H251.46L251.59 807.735H251.434C251.642 807.276 251.95 806.925 252.357 806.682C252.765 806.431 253.237 806.305 253.774 806.305C254.546 806.305 255.126 806.522 255.516 806.955C255.906 807.388 256.101 808.064 256.101 808.983V813H254.476V809.061C254.476 808.532 254.372 808.155 254.164 807.93C253.965 807.696 253.662 807.579 253.254 807.579C252.752 807.579 252.353 807.735 252.058 808.047C251.764 808.359 251.616 808.775 251.616 809.295V813H249.991ZM260.788 813.13C260.112 813.13 259.527 812.991 259.033 812.714C258.539 812.437 258.154 812.042 257.876 811.531C257.608 811.02 257.473 810.413 257.473 809.711C257.473 809.009 257.608 808.407 257.876 807.904C258.154 807.393 258.539 806.998 259.033 806.721C259.527 806.444 260.112 806.305 260.788 806.305C261.464 806.305 262.049 806.444 262.543 806.721C263.046 806.998 263.432 807.393 263.7 807.904C263.978 808.407 264.116 809.009 264.116 809.711C264.116 810.413 263.978 811.02 263.7 811.531C263.432 812.042 263.046 812.437 262.543 812.714C262.049 812.991 261.464 813.13 260.788 813.13ZM260.788 811.882C261.3 811.882 261.707 811.704 262.01 811.349C262.314 810.985 262.465 810.439 262.465 809.711C262.465 808.983 262.314 808.441 262.01 808.086C261.707 807.731 261.3 807.553 260.788 807.553C260.277 807.553 259.87 807.731 259.566 808.086C259.263 808.441 259.111 808.983 259.111 809.711C259.111 810.439 259.263 810.985 259.566 811.349C259.87 811.704 260.277 811.882 260.788 811.882ZM267.211 813L264.65 806.435H266.327L268.173 811.544H267.835L269.707 806.435H270.864L272.723 811.544H272.424L274.257 806.435H275.843L273.282 813H271.852L269.889 807.774H270.578L268.654 813H267.211Z" fill="#FF3951"/>
<path d="M281.792 550V543.655H285.752V544.267H282.539V546.49H285.554V547.102H282.539V550H281.792ZM288.452 550.081C288.02 550.081 287.642 549.988 287.318 549.802C287 549.61 286.754 549.34 286.58 548.992C286.406 548.638 286.319 548.221 286.319 547.741C286.319 547.255 286.406 546.838 286.58 546.49C286.754 546.142 287 545.875 287.318 545.689C287.642 545.497 288.02 545.401 288.452 545.401C288.89 545.401 289.268 545.497 289.586 545.689C289.91 545.875 290.159 546.142 290.333 546.49C290.513 546.838 290.603 547.255 290.603 547.741C290.603 548.221 290.513 548.638 290.333 548.992C290.159 549.34 289.91 549.61 289.586 549.802C289.268 549.988 288.89 550.081 288.452 550.081ZM288.452 549.487C288.884 549.487 289.226 549.34 289.478 549.046C289.73 548.746 289.856 548.311 289.856 547.741C289.856 547.165 289.727 546.73 289.469 546.436C289.217 546.136 288.878 545.986 288.452 545.986C288.026 545.986 287.687 546.136 287.435 546.436C287.183 546.73 287.057 547.165 287.057 547.741C287.057 548.311 287.183 548.746 287.435 549.046C287.687 549.34 288.026 549.487 288.452 549.487ZM291.721 550V546.571C291.721 546.391 291.715 546.208 291.703 546.022C291.697 545.836 291.685 545.656 291.667 545.482H292.369L292.459 546.58L292.333 546.589C292.393 546.319 292.498 546.097 292.648 545.923C292.798 545.749 292.975 545.62 293.179 545.536C293.383 545.446 293.596 545.401 293.818 545.401C293.908 545.401 293.986 545.404 294.052 545.41C294.124 545.416 294.19 545.431 294.25 545.455L294.241 546.103C294.151 546.073 294.067 546.055 293.989 546.049C293.917 546.037 293.833 546.031 293.737 546.031C293.473 546.031 293.242 546.094 293.044 546.22C292.852 546.346 292.705 546.508 292.603 546.706C292.507 546.904 292.459 547.114 292.459 547.336V550H291.721ZM296.945 552.007C296.555 552.007 296.195 551.959 295.865 551.863C295.535 551.767 295.238 551.62 294.974 551.422L295.19 550.873C295.376 551.005 295.559 551.11 295.739 551.188C295.919 551.266 296.105 551.323 296.297 551.359C296.489 551.401 296.693 551.422 296.909 551.422C297.353 551.422 297.689 551.305 297.917 551.071C298.145 550.837 298.259 550.504 298.259 550.072V548.749H298.349C298.253 549.103 298.055 549.385 297.755 549.595C297.455 549.799 297.104 549.901 296.702 549.901C296.288 549.901 295.928 549.811 295.622 549.631C295.322 549.445 295.088 549.184 294.92 548.848C294.758 548.506 294.677 548.104 294.677 547.642C294.677 547.186 294.758 546.79 294.92 546.454C295.088 546.118 295.322 545.86 295.622 545.68C295.928 545.494 296.288 545.401 296.702 545.401C297.11 545.401 297.461 545.503 297.755 545.707C298.055 545.911 298.253 546.193 298.349 546.553L298.259 546.463L298.34 545.482H299.051C299.027 545.656 299.009 545.833 298.997 546.013C298.985 546.187 298.979 546.358 298.979 546.526V549.973C298.979 550.645 298.805 551.152 298.457 551.494C298.115 551.836 297.611 552.007 296.945 552.007ZM296.837 549.307C297.275 549.307 297.62 549.163 297.872 548.875C298.124 548.581 298.25 548.17 298.25 547.642C298.25 547.114 298.124 546.706 297.872 546.418C297.62 546.13 297.275 545.986 296.837 545.986C296.405 545.986 296.06 546.13 295.802 546.418C295.544 546.706 295.415 547.114 295.415 547.642C295.415 548.17 295.544 548.581 295.802 548.875C296.06 549.163 296.405 549.307 296.837 549.307ZM302.386 550.081C301.678 550.081 301.12 549.877 300.712 549.469C300.304 549.055 300.1 548.482 300.1 547.75C300.1 547.276 300.19 546.865 300.37 546.517C300.55 546.163 300.802 545.89 301.126 545.698C301.45 545.5 301.822 545.401 302.242 545.401C302.656 545.401 303.004 545.488 303.286 545.662C303.568 545.836 303.784 546.085 303.934 546.409C304.084 546.727 304.159 547.105 304.159 547.543V547.813H300.658V547.354H303.682L303.529 547.471C303.529 546.991 303.421 546.616 303.205 546.346C302.989 546.076 302.668 545.941 302.242 545.941C301.792 545.941 301.441 546.1 301.189 546.418C300.937 546.73 300.811 547.153 300.811 547.687V547.768C300.811 548.332 300.949 548.761 301.225 549.055C301.507 549.343 301.9 549.487 302.404 549.487C302.674 549.487 302.926 549.448 303.16 549.37C303.4 549.286 303.628 549.151 303.844 548.965L304.096 549.478C303.898 549.67 303.646 549.82 303.34 549.928C303.04 550.03 302.722 550.081 302.386 550.081ZM306.876 550.081C306.432 550.081 306.093 549.955 305.859 549.703C305.625 549.445 305.508 549.058 305.508 548.542V546.049H304.626V545.482H305.508V544.249L306.237 544.042V545.482H307.533V546.049H306.237V548.461C306.237 548.821 306.297 549.079 306.417 549.235C306.543 549.385 306.729 549.46 306.975 549.46C307.089 549.46 307.191 549.451 307.281 549.433C307.371 549.409 307.452 549.382 307.524 549.352V549.964C307.44 550 307.338 550.027 307.218 550.045C307.104 550.069 306.99 550.081 306.876 550.081ZM310.768 551.944V546.526C310.768 546.358 310.759 546.187 310.741 546.013C310.729 545.833 310.714 545.656 310.696 545.482H311.398L311.497 546.553H311.389C311.485 546.199 311.68 545.92 311.974 545.716C312.268 545.506 312.619 545.401 313.027 545.401C313.435 545.401 313.786 545.494 314.08 545.68C314.38 545.866 314.614 546.133 314.782 546.481C314.95 546.829 315.034 547.249 315.034 547.741C315.034 548.227 314.95 548.644 314.782 548.992C314.62 549.34 314.389 549.61 314.089 549.802C313.789 549.988 313.435 550.081 313.027 550.081C312.625 550.081 312.277 549.979 311.983 549.775C311.689 549.571 311.494 549.292 311.398 548.938H311.497V551.944H310.768ZM312.883 549.487C313.315 549.487 313.657 549.34 313.909 549.046C314.167 548.746 314.296 548.311 314.296 547.741C314.296 547.165 314.167 546.73 313.909 546.436C313.657 546.136 313.315 545.986 312.883 545.986C312.457 545.986 312.115 546.136 311.857 546.436C311.605 546.73 311.479 547.165 311.479 547.741C311.479 548.311 311.605 548.746 311.857 549.046C312.115 549.34 312.457 549.487 312.883 549.487ZM317.883 550.081C317.481 550.081 317.13 549.988 316.83 549.802C316.53 549.61 316.296 549.34 316.128 548.992C315.966 548.644 315.885 548.227 315.885 547.741C315.885 547.249 315.966 546.829 316.128 546.481C316.296 546.133 316.53 545.866 316.83 545.68C317.13 545.494 317.481 545.401 317.883 545.401C318.291 545.401 318.642 545.506 318.936 545.716C319.236 545.92 319.434 546.199 319.53 546.553H319.422L319.521 545.482H320.223C320.205 545.656 320.187 545.833 320.169 546.013C320.157 546.187 320.151 546.358 320.151 546.526V550H319.422V548.938H319.521C319.425 549.292 319.227 549.571 318.927 549.775C318.627 549.979 318.279 550.081 317.883 550.081ZM318.027 549.487C318.459 549.487 318.801 549.34 319.053 549.046C319.305 548.746 319.431 548.311 319.431 547.741C319.431 547.165 319.305 546.73 319.053 546.436C318.801 546.136 318.459 545.986 318.027 545.986C317.601 545.986 317.259 546.136 317.001 546.436C316.749 546.73 316.623 547.165 316.623 547.741C316.623 548.311 316.749 548.746 317.001 549.046C317.259 549.34 317.601 549.487 318.027 549.487ZM323.064 550.081C322.704 550.081 322.368 550.033 322.056 549.937C321.744 549.835 321.486 549.694 321.282 549.514L321.534 549.001C321.756 549.175 321.996 549.304 322.254 549.388C322.518 549.472 322.791 549.514 323.073 549.514C323.433 549.514 323.703 549.451 323.883 549.325C324.069 549.193 324.162 549.013 324.162 548.785C324.162 548.611 324.102 548.473 323.982 548.371C323.868 548.263 323.679 548.179 323.415 548.119L322.578 547.948C322.194 547.864 321.906 547.723 321.714 547.525C321.522 547.321 321.426 547.063 321.426 546.751C321.426 546.487 321.495 546.256 321.633 546.058C321.771 545.854 321.972 545.695 322.236 545.581C322.5 545.461 322.809 545.401 323.163 545.401C323.493 545.401 323.796 545.452 324.072 545.554C324.354 545.65 324.588 545.791 324.774 545.977L324.513 546.481C324.333 546.307 324.126 546.178 323.892 546.094C323.664 546.004 323.427 545.959 323.181 545.959C322.827 545.959 322.56 546.031 322.38 546.175C322.206 546.313 322.119 546.496 322.119 546.724C322.119 546.898 322.173 547.042 322.281 547.156C322.395 547.264 322.569 547.345 322.803 547.399L323.64 547.57C324.048 547.66 324.351 547.801 324.549 547.993C324.753 548.179 324.855 548.431 324.855 548.749C324.855 549.019 324.78 549.256 324.63 549.46C324.48 549.658 324.27 549.811 324 549.919C323.736 550.027 323.424 550.081 323.064 550.081ZM327.528 550.081C327.168 550.081 326.832 550.033 326.52 549.937C326.208 549.835 325.95 549.694 325.746 549.514L325.998 549.001C326.22 549.175 326.46 549.304 326.718 549.388C326.982 549.472 327.255 549.514 327.537 549.514C327.897 549.514 328.167 549.451 328.347 549.325C328.533 549.193 328.626 549.013 328.626 548.785C328.626 548.611 328.566 548.473 328.446 548.371C328.332 548.263 328.143 548.179 327.879 548.119L327.042 547.948C326.658 547.864 326.37 547.723 326.178 547.525C325.986 547.321 325.89 547.063 325.89 546.751C325.89 546.487 325.959 546.256 326.097 546.058C326.235 545.854 326.436 545.695 326.7 545.581C326.964 545.461 327.273 545.401 327.627 545.401C327.957 545.401 328.26 545.452 328.536 545.554C328.818 545.65 329.052 545.791 329.238 545.977L328.977 546.481C328.797 546.307 328.59 546.178 328.356 546.094C328.128 546.004 327.891 545.959 327.645 545.959C327.291 545.959 327.024 546.031 326.844 546.175C326.67 546.313 326.583 546.496 326.583 546.724C326.583 546.898 326.637 547.042 326.745 547.156C326.859 547.264 327.033 547.345 327.267 547.399L328.104 547.57C328.512 547.66 328.815 547.801 329.013 547.993C329.217 548.179 329.319 548.431 329.319 548.749C329.319 549.019 329.244 549.256 329.094 549.46C328.944 549.658 328.734 549.811 328.464 549.919C328.2 550.027 327.888 550.081 327.528 550.081ZM331.608 550L329.934 545.482H330.708L332.103 549.46H331.869L333.309 545.482H333.939L335.352 549.46H335.127L336.531 545.482H337.269L335.586 550H334.884L333.426 545.959H333.786L332.319 550H331.608ZM340.017 550.081C339.585 550.081 339.207 549.988 338.883 549.802C338.565 549.61 338.319 549.34 338.145 548.992C337.971 548.638 337.884 548.221 337.884 547.741C337.884 547.255 337.971 546.838 338.145 546.49C338.319 546.142 338.565 545.875 338.883 545.689C339.207 545.497 339.585 545.401 340.017 545.401C340.455 545.401 340.833 545.497 341.151 545.689C341.475 545.875 341.724 546.142 341.898 546.49C342.078 546.838 342.168 547.255 342.168 547.741C342.168 548.221 342.078 548.638 341.898 548.992C341.724 549.34 341.475 549.61 341.151 549.802C340.833 549.988 340.455 550.081 340.017 550.081ZM340.017 549.487C340.449 549.487 340.791 549.34 341.043 549.046C341.295 548.746 341.421 548.311 341.421 547.741C341.421 547.165 341.292 546.73 341.034 546.436C340.782 546.136 340.443 545.986 340.017 545.986C339.591 545.986 339.252 546.136 339 546.436C338.748 546.73 338.622 547.165 338.622 547.741C338.622 548.311 338.748 548.746 339 549.046C339.252 549.34 339.591 549.487 340.017 549.487ZM343.287 550V546.571C343.287 546.391 343.281 546.208 343.269 546.022C343.263 545.836 343.251 545.656 343.233 545.482H343.935L344.025 546.58L343.899 546.589C343.959 546.319 344.064 546.097 344.214 545.923C344.364 545.749 344.541 545.62 344.745 545.536C344.949 545.446 345.162 545.401 345.384 545.401C345.474 545.401 345.552 545.404 345.618 545.41C345.69 545.416 345.756 545.431 345.816 545.455L345.807 546.103C345.717 546.073 345.633 546.055 345.555 546.049C345.483 546.037 345.399 546.031 345.303 546.031C345.039 546.031 344.808 546.094 344.61 546.22C344.418 546.346 344.271 546.508 344.169 546.706C344.073 546.904 344.025 547.114 344.025 547.336V550H343.287ZM348.232 550.081C347.836 550.081 347.488 549.988 347.188 549.802C346.888 549.61 346.654 549.34 346.486 548.992C346.324 548.644 346.243 548.227 346.243 547.741C346.243 547.249 346.324 546.829 346.486 546.481C346.654 546.133 346.888 545.866 347.188 545.68C347.488 545.494 347.836 545.401 348.232 545.401C348.64 545.401 348.991 545.503 349.285 545.707C349.585 545.911 349.786 546.187 349.888 546.535H349.78V543.376H350.509V550H349.789V548.92H349.888C349.792 549.28 349.594 549.565 349.294 549.775C348.994 549.979 348.64 550.081 348.232 550.081ZM348.385 549.487C348.811 549.487 349.153 549.34 349.411 549.046C349.669 548.746 349.798 548.311 349.798 547.741C349.798 547.165 349.669 546.73 349.411 546.436C349.153 546.136 348.811 545.986 348.385 545.986C347.959 545.986 347.617 546.136 347.359 546.436C347.107 546.73 346.981 547.165 346.981 547.741C346.981 548.311 347.107 548.746 347.359 549.046C347.617 549.34 347.959 549.487 348.385 549.487ZM355.102 548.344V548.083C355.102 547.777 355.159 547.492 355.273 547.228C355.393 546.958 355.603 546.655 355.903 546.319C356.137 546.061 356.302 545.836 356.398 545.644C356.494 545.446 356.542 545.245 356.542 545.041C356.542 544.783 356.449 544.582 356.263 544.438C356.077 544.288 355.819 544.213 355.489 544.213C355.255 544.213 355.03 544.246 354.814 544.312C354.598 544.372 354.391 544.456 354.193 544.564V543.889C354.391 543.787 354.607 543.709 354.841 543.655C355.081 543.601 355.321 543.574 355.561 543.574C355.903 543.574 356.203 543.631 356.461 543.745C356.719 543.853 356.92 544.012 357.064 544.222C357.214 544.426 357.289 544.678 357.289 544.978C357.289 545.17 357.259 545.356 357.199 545.536C357.139 545.71 357.046 545.887 356.92 546.067C356.794 546.241 356.632 546.433 356.434 546.643C356.14 546.943 355.933 547.207 355.813 547.435C355.693 547.657 355.621 547.885 355.597 548.119L355.57 548.344H355.102ZM354.868 550V549.082H355.795V550H354.868Z" fill="#FF3951"/>
<rect x="148" y="918" width="134" height="5" rx="2.5" fill="black"/>
<path fill-rule="evenodd" clip-rule="evenodd" d="M40 0H0V892V932H40C17.9086 932 0 914.091 0 892L1.09745e-05 40C1.12463e-05 17.9086 17.9086 0 40 0ZM390 0C412.091 0 430 17.9086 430 40V0H390ZM430 892C430 914.091 412.091 932 390 932H430V892Z" fill="black"/>
<rect x="152" y="11" width="126" height="37" rx="18.5" fill="black"/>
<path opacity="0.35" fill-rule="evenodd" clip-rule="evenodd" d="M361 26C361 23.7909 362.791 22 365 22H385C387.209 22 389 23.7909 389 26V31C389 33.2091 387.209 35 385 35H365C362.791 35 361 33.2091 361 31V26ZM362 26C362 24.3431 363.343 23 365 23H385C386.657 23 388 24.3431 388 26V31C388 32.6568 386.657 34 385 34H365C363.343 34 362 32.6568 362 31V26ZM392 28.5C392 29.5914 391.212 30.5765 390 31V26C391.212 26.4235 392 27.4086 392 28.5Z" fill="black"/>
<path fill-rule="evenodd" clip-rule="evenodd" d="M351.869 27.766C349.835 25.8325 347.136 24.7543 344.33 24.7542C341.524 24.7542 338.825 25.8324 336.791 27.766C336.638 27.9155 336.393 27.9136 336.242 27.7618L334.778 26.2844C334.701 26.2074 334.659 26.1032 334.66 25.9949C334.66 25.8865 334.704 25.7829 334.781 25.7069C340.119 20.5914 348.54 20.5914 353.878 25.7069C353.956 25.7829 353.999 25.8866 354 25.995C354.001 26.1033 353.958 26.2075 353.882 26.2844L352.418 27.7618C352.267 27.9134 352.022 27.9153 351.869 27.766ZM348.502 31.1688C347.359 30.1339 345.872 29.5608 344.33 29.5609C342.789 29.5615 341.304 30.1346 340.162 31.1688C340.007 31.3156 339.764 31.3124 339.613 31.1616L338.151 29.6841C338.074 29.6068 338.031 29.5016 338.032 29.3924C338.033 29.2831 338.078 29.1788 338.157 29.1029C341.637 25.8656 347.026 25.8656 350.507 29.1029C350.585 29.1788 350.63 29.283 350.631 29.3923C350.632 29.5015 350.59 29.6067 350.513 29.6841L349.05 31.1616C348.9 31.3124 348.656 31.3156 348.502 31.1688ZM347.141 33.0868C347.219 33.0101 347.262 32.9045 347.26 32.7949C347.257 32.6854 347.21 32.5816 347.129 32.5081C345.513 31.1418 343.148 31.1418 341.532 32.5081C341.451 32.5815 341.403 32.6853 341.401 32.7948C341.399 32.9044 341.442 33.01 341.52 33.0868L344.05 35.6394C344.124 35.7144 344.225 35.7566 344.33 35.7566C344.436 35.7566 344.537 35.7144 344.611 35.6394L347.141 33.0868ZM365 24C363.895 24 363 24.8954 363 26V31C363 32.1046 363.895 33 365 33H385C386.105 33 387 32.1046 387 31V26C387 24.8954 386.105 24 385 24H365ZM325 23H323.812C323.157 23 322.625 23.5317 322.625 24.1875V34.4792C322.625 35.135 323.157 35.6667 323.812 35.6667H325C325.656 35.6667 326.188 35.135 326.188 34.4792V24.1875C326.188 23.5317 325.656 23 325 23ZM318.271 25.7708H319.458C320.114 25.7708 320.646 26.3025 320.646 26.9583V34.4792C320.646 35.135 320.114 35.6667 319.458 35.6667H318.271C317.615 35.6667 317.083 35.135 317.083 34.4792V26.9583C317.083 26.3025 317.615 25.7708 318.271 25.7708ZM313.917 28.5417H312.729C312.073 28.5417 311.542 29.0733 311.542 29.7292V34.4792C311.542 35.135 312.073 35.6667 312.729 35.6667H313.917C314.573 35.6667 315.104 35.135 315.104 34.4792V29.7292C315.104 29.0733 314.573 28.5417 313.917 28.5417ZM308.375 30.9167H307.188C306.532 30.9167 306 31.4483 306 32.1042V34.4792C306 35.135 306.532 35.6667 307.188 35.6667H308.375C309.031 35.6667 309.562 35.135 309.562 34.4792V32.1042C309.562 31.4483 309.031 30.9167 308.375 30.9167ZM73.0994 28.8346C73.0994 32.8079 71.3171 35.1542 68.3167 35.1542C66.1583 35.1542 64.5151 33.8789 64.1635 31.9413H66.2646C66.5344 32.8324 67.3193 33.3883 68.333 33.3883C70.0581 33.3883 71.08 31.7778 71.08 29.0798H70.941C70.3851 30.1999 69.265 30.8457 67.8834 30.8457C65.6351 30.8457 64 29.1943 64 26.9215C64 24.5015 65.815 22.7765 68.3821 22.7765C70.1071 22.7765 71.4724 23.5941 72.2655 25.1065C72.8132 26.0794 73.0994 27.3384 73.0994 28.8346ZM66.0684 26.8561C66.0684 28.205 67.0331 29.1697 68.3902 29.1697C69.7392 29.1697 70.7284 28.205 70.7284 26.8888C70.7284 25.5562 69.7146 24.5342 68.3984 24.5342C67.0821 24.5342 66.0684 25.5398 66.0684 26.8561ZM76.468 27.4856C77.2447 27.4856 77.7761 26.9378 77.7761 26.202C77.7761 25.4581 77.2447 24.9103 76.468 24.9103C75.6995 24.9103 75.1599 25.4581 75.1599 26.202C75.1599 26.9378 75.6995 27.4856 76.468 27.4856ZM77.7761 32.3255C77.7761 33.0613 77.2447 33.6172 76.468 33.6172C75.6995 33.6172 75.1599 33.0613 75.1599 32.3255C75.1599 31.5815 75.6995 31.0338 76.468 31.0338C77.2447 31.0338 77.7761 31.5815 77.7761 32.3255ZM87.6115 34.8681V32.6689H89.2057V30.8866H87.6115V23.0708H84.6356C82.5508 26.2102 80.8912 28.8346 79.8284 30.7885V32.6689H85.5921V34.8681H87.6115ZM81.7825 30.9357H85.625V24.7877H85.5105C84.3823 26.4555 83.156 28.3931 81.7825 30.8131V30.9357ZM95.9999 34.8681V23.0708H93.8988L90.8167 25.2291V27.2567L93.7517 25.1964H93.8906V34.8681H95.9999Z" fill="black"/>
</g>
<defs>
<clipPath id="clip0_6_393">
<rect width="430" height="932" fill="white"/>
</clipPath>
</defs>
</svg>
